<svg width="202" height="121" viewBox="0 0 202 121" fill="none" xmlns="http://www.w3.org/2000/svg">
<path d="M55.6083 0.0605448C58.7026 0.0122863 62.7586 -0.00148219 65.8411 0.00776333C66.8072 0.0104778 66.318 0.0616487 66.9849 0.0661001C68.2891 0.0750642 69.5043 0.0424117 70.7932 0.0557632C71.2203 0.0605615 70.6886 0.142202 71.1365 0.145713C73.591 0.16511 75.9129 0.13096 78.3993 0.133665C90.6463 0.150279 102.685 0.135315 115.082 0.134086C119.169 0.132941 124.138 0.217129 128.36 0.158937C128.853 0.151927 128.559 0.0527847 128.653 0.044208C130.124 -0.0882133 129.635 0.116371 130.595 0.140373C134.407 0.234859 138.645 0.235519 142.313 0.184043C143.873 0.161844 142.309 -0.04565 143.88 0.0684534C143.989 0.0762177 143.593 0.191058 144.021 0.202034C144.992 0.226805 146.833 0.201669 147.585 0.208842C148.923 0.222284 149.231 0.221908 150.349 0.220155C150.444 0.220011 150.544 0.220115 150.651 0.220587C152.555 0.225742 154.797 0.419128 156.824 0.650768C157.256 0.700028 156.701 0.503492 157.392 0.573991C158.079 0.637043 159.904 0.956569 160.499 1.11482C161.102 1.2673 160.822 1.31095 160.925 1.35492C161.77 1.71282 163.881 1.98462 164.149 2.06223C168.982 3.31688 172.882 5.23191 176.872 7.6572C179.907 9.50499 182.958 11.807 185.4 14.1532C188.306 16.952 190.45 19.6412 192.639 22.8819C192.868 23.2258 192.738 22.731 193.017 23.1528C195.976 27.645 198.171 32.6038 199.438 37.8026C199.564 38.325 199.244 37.6937 199.359 38.217C200.129 41.4159 200.443 46.5323 201.142 48.452C201.17 49.2075 201.182 50.0222 201.17 50.8496C201.147 52.411 201.107 54.0026 201.019 55.2913C200.934 56.5529 200.765 55.3276 200.838 56.8774C200.854 57.2269 201.001 56.7724 201.014 57.2966C201.071 59.5035 201.025 61.9147 201.104 64.098C201.121 64.5421 201.254 64.4209 201.278 64.5467C201.474 65.6042 201.154 67.3646 201.131 67.7484C201.087 68.4923 201.059 69.1851 201.042 69.8496C200.986 71.8285 200.933 73.5493 200.706 75.594C200.631 76.2316 200.9 75.4985 200.833 76.1138C200.475 79.301 199.735 82.5642 198.689 85.5232C198.454 86.1813 198.505 85.5222 198.385 85.8331C197.847 87.1941 198.011 87.6027 197.432 88.8908C197.308 89.161 197.246 88.9549 197.212 88.9995C196.68 89.6895 196.681 90.4916 196.598 90.6944C195.538 93.2472 194.388 94.6369 193.026 96.905C192.86 97.1762 193.393 96.6644 192.915 97.4214C189.725 102.465 185.282 107.111 180.457 110.495C179.708 111.02 180.157 110.528 180.101 110.549C179.199 110.896 178.894 111.511 178.653 111.69C176.753 113.093 174.701 113.925 173.464 115.011C166.283 118.581 158.322 120.596 150.349 120.453C150.349 120.453 150.349 120.453 150.349 120.453C148.414 120.42 146.48 120.371 144.548 120.299C144.423 120.295 144.646 120.127 144.398 120.12C141.411 120.026 141.985 120.286 140.008 120.604C139.51 120.684 137.996 120.299 137.862 120.271C137.374 120.168 137.88 119.919 137.717 119.899C136.364 119.741 136.584 120.564 134.759 120.564C134.702 120.563 134.942 120.411 134.789 120.396C134.313 120.349 133.841 120.409 133.375 120.357C132.31 120.236 131.93 119.836 130.302 120.069C130.096 120.099 130.411 120.565 128.781 120.543C128.132 120.533 125.256 120.541 124.451 120.51C123.646 120.48 124.198 120.33 124.141 120.324C121.972 120.125 122.795 120.043 121.708 119.75C120.622 119.458 120.923 120.154 120.48 120.232C120.036 120.309 118.446 120.146 118.056 120.089C117.665 120.032 118.152 119.938 117.805 119.905C115.502 119.696 116.794 120.25 116.036 120.36C114.247 120.62 112.854 120.105 111.216 120.055C110.773 120.042 111.135 120.158 110.74 120.169C109.178 120.211 108.238 120.051 106.46 120.197C106.169 120.221 104.732 120.527 103.802 120.302C103.67 120.269 104.044 120.142 103.378 120.113C102.384 120.07 100.591 120.042 99.5217 120.084C98.7322 120.116 99.6371 120.325 98.6433 120.26C98.2017 120.23 99.0202 120.109 98.1905 120.064C97.3651 120.02 95.2547 120.025 94.4517 120.029C93.6501 120.033 94.0888 120.191 94.0241 120.201C93.632 120.262 92.0937 120.338 91.9577 120.337C85.1006 120.352 78.7773 120.088 72.1009 120.171C71.577 120.178 71.926 120.34 71.8461 120.343C70.0524 120.409 71.4666 119.979 70.2136 119.835C70.3947 120.164 69.6551 120.104 68.3916 120.139C67.7828 120.157 68.1144 120.283 68.0588 120.296C67.1559 120.488 66.5272 120.239 66.3653 120.189C65.7673 120.002 65.1166 120.222 64.7097 120.097C64.303 119.974 65.2389 119.79 64.0272 119.793C63.6874 119.909 64.587 120.214 63.667 120.263C60.1959 120.446 53.7165 120.204 50.9256 120.179C50.7238 120.177 50.5319 120.175 50.3489 120.174C47.9845 120.141 47.0989 120.078 45.5959 119.91C42.6697 119.517 43.7266 119.85 41.8885 119.668C40.0529 119.441 41.0382 119.071 40.7996 118.912C40.5693 118.751 40.2727 118.811 39.9706 118.683C39.6715 118.555 40.3625 118.624 39.635 118.443C38.9076 118.273 36.8778 117.953 36.5881 117.983C35.9769 118.063 36.7921 118.599 34.9022 117.913C34.7941 117.872 35.1926 117.855 34.7768 117.706C31.4816 116.524 28.1566 115.025 25.1936 113.189C24.7871 112.936 25.2321 113.023 24.9973 112.874C22.5779 111.287 23.3339 112.036 21.8481 111.381C22.3578 111.27 21.736 110.621 19.9998 109.294C18.9634 108.484 19.0445 108.747 18.312 108.291C18.0911 108.154 17.4537 107.46 17.2787 107.403C16.7015 107.21 17.1588 108.028 15.5621 106.385C15.4933 106.312 15.816 106.435 15.5716 106.191C14.0151 104.591 13.6416 104.577 12.0192 102.772C10.7437 101.356 8.83952 98.5516 7.73258 96.7018C8.08321 96.5299 6.95198 94.8594 6.32514 94.2593C5.65538 93.0315 4.96609 91.6821 4.44883 90.4337C4.27096 90.0035 4.49759 90.2375 4.48472 90.1789C4.2947 89.2824 3.83219 88.8235 3.70993 88.546C2.4144 85.5368 1.8461 82.9195 1.03626 79.9034C1.00904 79.7969 0.71514 79.6709 0.751672 78.8131C0.755675 78.758 1.04972 79.7519 0.804618 78.3042C0.555619 76.852 0.365033 74.1002 0.177505 72.068C0.135748 71.6625 -0.0381957 70.7352 0.00759745 69.8496C0.0165478 69.6724 0.0331555 69.4974 0.059923 69.3294C0.0814526 69.1967 0.152552 69.3419 0.192301 69.1504C0.318549 68.5311 0.0689387 68.1931 0.281235 67.4653C0.493623 66.7375 0.64806 65.2236 0.502637 63.1788C0.498331 63.1137 0.30438 62.6296 0.307726 61.9866C0.313027 60.9601 0.35301 59.5029 0.351676 58.431C0.351007 57.9178 0.233122 58.2463 0.230972 58.1572C0.181174 55.47 0.235129 53.3861 0.281416 50.8496C0.294696 50.1239 0.322412 49.3655 0.36889 48.552C0.399886 47.874 0.386031 45.9198 0.677682 44.623C1.00912 43.2135 1.28286 44.744 1.71312 41.4899C1.90638 40.1931 1.61398 38.3683 2.64499 36.1668C3.9442 31.6952 5.9201 27.8356 8.33239 23.8544C8.4406 23.6753 8.66284 23.0276 8.94572 22.6205C9.36472 22.0168 9.66359 21.7353 9.97601 21.316C11.292 19.5633 12.5338 17.9812 13.9952 16.45C14.5531 15.8723 14.411 16.1253 15.0879 15.4499C15.7692 14.7811 16.1609 14.2646 17.16 13.4362C17.9181 12.814 18.7896 12.3329 19.8201 11.5543C19.7421 11.3744 20.4376 10.8163 21.7061 9.86384C21.9506 9.68135 21.6447 9.81458 21.7587 9.72548C22.2228 9.36175 22.7047 9.10422 23.1532 8.7706C23.2626 8.6896 23.2336 8.63276 23.3215 8.56383C24.0671 7.96943 25.4874 7.30699 25.7331 7.20085C26.672 6.77987 27.0556 6.48948 27.7722 6.16477C28.4885 5.8454 27.4612 6.40874 28.2891 6.02007C30.0013 5.21527 32.2428 4.26498 34.062 3.64761C34.7875 3.40041 34.2684 3.49742 34.3716 3.46033C35.8745 2.93061 37.4398 2.58567 38.2607 2.23507C39.4165 2.34877 39.1825 1.94762 41.4274 1.59972C41.6052 1.57466 41.8568 1.70175 41.189 1.85056C40.5246 1.99988 39.4927 2.15858 38.5816 2.42399C38.3647 2.4815 37.1634 2.97232 37 3.03424C35.7067 3.4902 35.4477 3.30208 35.3712 3.30671C34.5276 3.39479 33.1077 4.0996 32.7271 4.26573C30.9803 4.99784 29.499 5.62487 28.1046 6.37592C27.195 6.87207 27.2009 7.09436 26.4897 7.47942C24.1509 8.7924 23.196 9.07362 21.2752 10.7544C20.8721 11.1246 21.4277 10.9643 19.7882 12.0185C19.6849 12.0822 18.4558 12.8648 17.9002 13.5008C17.8302 13.58 17.8775 13.6292 17.778 13.7249C17.1126 14.3674 16.623 14.7466 15.921 15.4699C15.2201 16.1939 14.4126 17.095 13.6332 17.938C13.1623 18.444 12.488 19.0378 12.2516 19.2747C11.5792 19.9385 11.0899 20.8342 10.6513 21.2318C10.2086 21.6358 10.7445 20.5965 9.77179 21.8047C9.89442 21.9634 9.97906 22.1851 10.0847 22.3717C8.15233 25.1165 6.46997 27.9834 5.13611 31.081C4.97205 31.4657 5.24129 31.1166 5.07018 31.5303C4.35879 33.2729 3.72396 34.7994 3.19659 36.6849C2.79065 38.1442 2.51547 39.7841 2.25178 41.3391C1.81601 42.2337 1.53252 44.5746 1.37379 46.272C1.3151 46.8649 1.25124 46.82 1.19846 47.243C1.01718 48.8448 1.29419 48.1063 1.30752 48.5449C1.35494 49.65 1.21243 50.1578 1.08151 50.8496C0.991578 51.3379 0.907122 51.9128 0.914876 52.8428C0.915245 52.9625 1.20272 54.4254 1.22171 54.6269C1.3424 55.9072 1.12362 54.8389 1.1054 55.6401C1.07209 57.103 1.00568 58.1196 1.09614 59.836C1.12261 60.3365 1.30974 61.5371 1.17181 62.509C1.1537 62.6368 1.05625 62.5662 1.05086 62.6691C0.960905 64.5319 1.26825 64.5809 1.37771 65.6454C1.48751 66.7101 1.27969 68.3544 1.21804 68.6891C1.05958 69.5646 1.14704 68.0182 1.13105 67.9708C0.94183 67.4139 0.977319 68.6132 0.963599 69.5295C0.877039 69.5668 0.816449 69.695 0.780091 69.8496C0.686291 70.2446 0.761832 70.8088 0.954423 70.4748C0.973759 70.4398 0.963381 70.117 0.960839 69.8496C0.959417 69.7132 0.959014 69.5914 0.963599 69.5295C1.00068 69.6275 1.03391 69.7345 1.06318 69.8496C1.27348 70.6766 1.30236 71.8845 1.14762 73.252C1.07401 73.9786 0.833339 73.314 1.11959 75.4891C1.26488 76.4751 1.4324 76.067 1.61286 76.9212C2.028 78.8738 2.36969 81.4414 2.98165 83.413C3.20254 84.1249 3.11523 83.3947 3.27196 83.8782C3.69389 85.1582 3.99369 86.3125 4.53039 87.5614C4.57938 87.6739 4.59108 87.3485 4.74675 87.7388C5.94455 90.6867 7.12659 93.2118 8.9043 96.0279C9.75194 97.3958 11.505 99.6792 12.5693 100.955C14.3729 103.201 16.7747 105.849 18.7143 107.389C19.9764 108.391 19.797 108.049 20.3959 108.399C21.5452 109.073 23.288 110.664 23.5343 110.874C23.5396 110.885 22.3706 110.141 22.9436 110.614C23.2167 110.98 23.5213 110.867 23.5343 110.874C23.6796 111.032 26.027 112.5 26.5327 112.724C26.8016 112.855 26.721 112.655 26.8598 112.725C30.1566 114.384 33.5881 115.741 37.1646 116.801C37.2272 116.821 37.0895 116.945 37.2377 116.991C39.3138 117.625 40.7207 117.713 42.4929 117.887C44.2643 118.053 45.657 118.219 46.6878 118.568C47.7778 118.622 49.2268 118.746 50.3489 118.81C50.6226 118.825 50.8752 118.841 51.0962 118.855C52.2339 118.927 52.3926 118.614 52.4927 118.607C55.615 118.402 57.4199 118.577 60.6591 118.599C62.1992 118.61 65.2539 118.558 66.9214 118.52C68.2392 118.489 69.0331 118.563 70.2473 118.513C70.4116 118.506 70.2457 118.363 70.2958 118.357C71.6509 118.183 70.9997 118.535 71.2795 118.597C72.2938 118.824 72.9205 118.945 74.656 118.835C75.0563 118.81 76.2222 118.299 76.9519 118.268C77.9006 118.228 77.5425 118.412 78.5359 118.366C78.6209 118.362 78.6032 118.249 79.2163 118.253C82.0621 118.269 85.1647 118.329 88.122 118.313C88.526 118.311 88.0081 118.131 88.5917 118.126C91.3304 118.099 94.3322 118.101 97.0004 118.182C97.6571 118.203 97.2454 118.331 97.3879 118.369C98.2632 118.598 99.5044 118.262 99.7092 118.255C104.594 118.087 108.333 118.387 113.312 118.237C113.583 118.229 115.669 117.864 116.6 118.174C116.664 118.195 117.585 118.512 118.399 118.294C118.45 118.28 117.876 118.117 118.877 118.132C119.879 118.148 121.49 118.037 122.867 118.217C123.302 118.273 124.332 118.591 125.632 118.336C125.717 118.319 127.724 117.742 128.44 118.139C128.556 118.204 128.435 118.624 129.986 118.408C130.283 118.366 129.744 118.272 130.525 118.213C131.722 118.123 133.307 118.234 134.778 118.046C135.035 118.013 136.127 117.726 137.002 117.943C137.14 117.977 136.879 118.118 137.342 118.133C139.541 118.208 141.844 118.113 144.078 118.21C144.869 118.245 144.464 118.472 145.289 118.533C146.114 118.594 147.775 118.653 148.638 118.549C149.501 118.444 148.558 118.082 149.851 118.052C150.017 118.049 150.183 118.045 150.349 118.042C150.349 118.042 150.349 118.042 150.349 118.042C155.606 117.939 160.825 117.297 165.835 115.64C166.597 115.382 165.927 115.484 167.037 115.08C171.198 113.686 177.654 109.768 180.7 107.493C183.187 105.715 180.343 108.308 182.192 106.868C183.084 106.161 183.689 105.016 183.872 104.82C185.682 102.887 187.044 101.634 188.486 99.7282C188.781 99.3332 188.351 99.6104 188.601 99.2754C189.45 98.1305 190.374 96.9448 191.097 95.7878C191.419 95.2675 191.251 95.2954 191.553 94.8218C192.27 93.6864 192.894 92.6724 193.594 91.5534C193.658 91.4504 193.435 92.2468 193.89 91.3539C194.622 89.9099 195.537 88.1024 196.056 86.3013C196.207 85.7668 195.948 85.6591 196.506 84.5925C196.618 84.3679 196.867 84.7745 196.976 83.3616C197.005 83.1203 197.214 80.7925 197.685 79.7301C197.814 79.451 198.241 78.7528 198.31 78.0847C198.318 77.9945 198.106 78.3253 198.183 77.7788C198.453 75.8583 198.683 73.8351 198.719 71.8399C198.727 71.3096 198.539 72.0922 198.553 71.3034C198.559 70.8412 198.564 70.3532 198.563 69.8496C198.561 67.9321 198.599 65.8221 198.642 64.0896C198.662 63.2781 198.79 63.839 198.804 63.78C199.035 62.8304 198.728 62.2689 198.711 61.9537C198.608 59.9936 198.756 58.5009 198.723 56.6941C198.714 56.1955 198.567 56.5491 198.555 56.4498C198.431 55.4204 198.69 56.1872 198.721 55.5356C198.791 54.0412 198.8 52.4063 198.793 50.8496C198.792 50.5135 198.786 50.1819 198.777 49.8573C198.757 49.2004 198.606 49.942 198.588 49.3544C198.469 45.8778 197.992 42.2854 197.253 38.9659C197.113 38.3416 197.334 38.6999 197.329 38.5632C197.296 37.6108 196.643 36.3934 196.522 36.1062C195.978 34.7968 195.897 34.2497 195.429 33.0902C193.194 27.4181 189.066 21.0091 185.016 16.8935C179.774 11.5283 174.8 8.14645 168.14 5.45262C167.714 5.2865 168.089 5.59292 167.722 5.45284C162.985 3.65247 158.06 2.52709 152.969 2.26974C152.552 2.2496 153.144 2.41426 152.478 2.38881C151.829 2.36639 151.094 2.34753 150.349 2.33972C149.508 2.3309 148.66 2.31358 147.912 2.28751C147.215 2.26359 148.149 2.15699 147.448 2.13546C145.816 2.08528 144.066 2.06778 142.389 2.07957C141.675 2.08476 142.752 2.2208 141.824 2.21705C135.506 2.19472 129.3 2.17284 122.915 1.98096C122.478 1.96766 122.094 1.72456 121.163 1.76652C121.093 1.83276 121.097 1.91105 121.066 1.98199C111.868 1.96497 102.764 1.82879 93.5399 1.76183C93.151 1.75887 93.8231 1.87118 93.0702 1.86563C88.7124 1.8344 84.4808 1.82853 80.0233 1.70006C79.581 1.68753 79.8079 1.51785 78.5046 1.53645C78.2747 1.53991 76.3118 1.55114 75.8042 1.5838C75.7353 1.58873 76.0934 1.66857 75.4609 1.66642C71.785 1.65259 67.9329 1.60643 64.2634 1.53899C63.6712 1.52804 64.3019 1.45818 63.8801 1.44998C60.8879 1.39425 57.6333 1.42762 54.7742 1.3494C52.8604 1.29799 53.569 1.18731 52.552 1.07265C52.4082 1.05657 51.2231 1.05111 51.1618 0.987478C51.0045 0.827721 51.5785 0.651257 51.3429 0.480706C51.3045 0.452436 50.3491 0.47394 50.3489 0.442622C50.3489 0.442616 50.3489 0.442609 50.3489 0.442602C50.3489 0.433363 50.4319 0.419554 50.6457 0.398319C50.7114 0.392134 51.8621 0.356258 52.1455 0.323893C52.3428 0.301506 51.9872 0.2385 52.3898 0.208513C52.7924 0.178301 53.2347 0.230523 53.9022 0.193384C54.5693 0.155524 54.276 0.0814761 55.6083 0.0605448ZM56.2189 119.18C57.2723 119.33 57.4278 118.774 56.2884 118.909C56.2332 118.916 56.1646 119.172 56.2189 119.18ZM6.34307 27.89C5.57208 29.0334 5.39593 29.9891 5.91922 29.1724C6.44649 28.3627 6.57853 27.5449 6.34307 27.89ZM14.5024 16.3326C13.3174 17.4211 13.4971 17.921 14.591 16.609C14.6553 16.5335 14.5719 16.2696 14.5024 16.3326ZM57.2682 1.05142C57.2536 1.04815 56.4017 1.0432 56.3814 1.04633C55.9278 1.12134 57.6312 1.1327 57.2682 1.05142ZM25.518 7.56798C25.052 7.76469 23.8551 8.57582 24.4231 8.31025C24.8754 8.09198 26.0927 7.317 25.518 7.56798ZM111.172 119.767C111.189 119.776 111.799 119.784 111.787 119.734C111.746 119.573 110.896 119.619 111.172 119.767ZM48.3918 0.970041C44.8466 1.13597 42.665 1.17137 46.537 0.820555C47.2379 0.770181 45.0353 1.0322 45.9281 0.982398C47.5618 0.890927 48.6367 0.674991 50.318 0.759432C50.6192 0.767986 48.5895 0.951676 48.3855 0.970665C48.3876 0.970457 48.3897 0.970249 48.3918 0.970041ZM56.8255 119.846C56.8466 119.853 57.692 119.86 57.7123 119.853C58.1702 119.677 56.4669 119.663 56.8255 119.846ZM146.81 120.136C146.856 120.152 148.818 120.168 148.882 120.153C149.906 119.842 145.939 119.809 146.81 120.136ZM7.72341 96.6674C7.09474 95.964 6.51558 95.0064 6.32703 94.2631C6.76609 95.0763 7.23651 95.8754 7.72341 96.6674Z" fill="#C4A77D"/>
</svg>
