<svg width="403" height="402" viewBox="0 0 403 402" fill="none" xmlns="http://www.w3.org/2000/svg">
<path d="M190.313 5.24867C183.529 5.8125 174.728 6.90156 168.054 8.0757C165.969 8.44 166.987 8.04737 165.547 8.2992C162.742 8.79779 160.141 9.48635 157.382 10.082C156.466 10.2797 157.525 9.69176 156.566 9.90655C151.308 11.0933 146.429 12.6209 141.231 14.3231C115.656 22.7185 92.3006 36.3821 72.115 54.6817C65.4464 60.6932 57.639 68.4044 51.9735 75.7798C51.3119 76.6384 52.0276 76.3867 51.9244 76.5682C50.3198 79.4142 50.3521 78.0678 48.9765 79.6741C43.5355 86.0597 38.3156 93.8553 34.465 100.947C32.8354 103.97 35.2557 101.388 33.1663 104.171C33.0225 104.366 33.0444 103.381 32.5485 104.184C31.4144 106.004 29.625 109.634 28.8647 111.108C27.3902 113.942 27.1705 114.421 25.9097 117.162C24.1907 120.914 22.0919 125.358 20.6506 129.557C20.3454 130.453 21.2363 129.45 20.7969 130.894C20.3503 132.333 19.0247 136.075 18.5087 137.321C17.985 138.564 17.7891 137.9 17.6309 138.099C16.291 139.745 16.0045 144.477 15.886 145.056C13.4497 155.585 11.126 164.595 9.93753 174.682C9.05301 182.29 8.8338 190.441 8.84558 197.753C8.84558 197.753 8.84558 197.753 8.84558 197.753C8.8456 197.813 8.84562 197.874 8.84565 197.934C8.86912 206.691 9.07845 214.076 10.2147 222.513C10.3371 223.4 10.8481 222.277 11.0012 223.357C12.6469 234.826 15.1597 246.055 18.3084 257.173C18.626 258.291 17.5913 257.053 17.8765 258.182C19.5527 265.078 22.8193 276.095 27.0693 278.766C28.9941 283.156 31.5832 288.366 33.2416 292.375C34.3164 294.959 32.3834 292.955 34.3523 295.769C34.7993 296.4 34.7967 295.24 35.4293 296.206C38.0936 300.266 40.8215 304.818 43.8456 308.564C44.4613 309.324 44.7435 308.797 44.9816 308.966C46.9478 310.397 48.2243 314.231 48.6747 314.96C52.0483 320.467 55.3147 323.894 59.3385 328.318C60.2775 329.342 59.6992 327.645 60.6217 328.608C65.4025 333.598 70.5088 338.601 75.4142 343.281C76.5062 344.322 75.046 343.891 75.5486 344.413C77.7868 346.707 79.0912 346.244 81.2984 348.351C81.7675 348.792 81.1485 348.988 81.2033 349.107C82.0668 350.984 84.1512 350.922 84.5411 351.182C89.5283 354.463 91.8706 357.787 96.843 360.784C97.4387 361.137 96.499 359.719 98.1492 360.741C109.15 367.537 121.301 373.828 133.109 378.879C134.948 379.663 133.43 379.651 133.524 379.756C135.106 381.424 136.818 380.594 137.445 380.761C142.396 382.117 146.689 384.588 150.484 383.955C167.184 389.009 184.544 390.808 201.859 391.34C201.859 391.34 201.859 391.34 201.859 391.34C201.859 391.34 201.859 391.34 201.859 391.34C206.158 391.472 210.376 391.53 214.684 391.538C214.96 391.537 214.51 392.238 215.062 392.232C221.705 392.112 220.338 391.15 224.532 389.417C225.578 388.982 229.078 390.068 229.392 390.13C230.517 390.388 229.551 391.533 229.921 391.561C232.984 391.743 232.022 388.576 235.964 387.894C236.088 387.878 235.674 388.566 236.017 388.567C237.085 388.569 238.063 388.142 239.108 388.152C241.491 388.172 242.681 389.572 246.005 387.861C246.42 387.636 245.335 385.998 248.825 385.233C250.218 384.953 256.326 383.246 258.04 382.823C259.765 382.422 258.781 383.349 258.909 383.338C263.725 382.66 262.09 383.509 264.762 383.861C267.442 384.18 265.892 381.763 266.712 381.148C267.53 380.539 271.058 379.931 271.95 379.821C272.842 379.72 271.968 380.465 272.736 380.306C277.819 379.195 274.313 378.195 275.701 377.16C278.932 374.698 282.566 375.326 285.944 373.94C286.853 373.564 285.927 373.49 286.697 373.07C289.735 371.403 291.891 371.023 295.074 368.629C295.603 368.237 297.767 365.628 299.986 365.365C300.303 365.329 299.846 366.19 301.176 365.538C303.161 364.571 306.613 362.556 308.5 361.108C309.894 360.042 307.762 360.449 309.736 359.451C310.613 359.004 309.379 360.42 311.005 359.54C312.633 358.672 316.453 355.944 317.867 354.859C319.287 353.784 318.126 353.859 318.216 353.739C318.773 353.03 321.284 350.719 321.516 350.529C333.351 341.14 344.124 331.964 353.219 320.251C353.929 319.332 352.937 319.526 353.041 319.382C355.301 316.118 354.704 319.64 356.879 317.798C355.593 317.309 356.802 316.167 358.362 313.834C359.109 312.708 358.263 312.998 358.294 312.868C358.857 310.811 360.463 310.262 360.838 310.084C362.216 309.432 362.314 307.74 363.232 307.275C364.148 306.803 363.587 308.945 365.09 306.696C365.122 305.81 363.003 306.79 363.969 304.989C367.705 298.27 375.46 286.234 378.086 280.598C380.782 275.05 381.441 273.151 382.945 269.886C385.584 263.933 383.901 265.831 384.893 261.928C385.837 257.999 387.213 260.526 387.838 260.123C388.456 259.722 388.206 258.977 388.666 258.373C389.125 257.769 388.946 259.342 389.551 257.765C390.172 256.179 390.688 251.548 390.379 250.846C389.741 249.366 388.197 251.072 389.697 246.918C389.782 246.678 390.11 247.615 390.41 246.688C392.765 239.346 394.342 231.436 395.725 223.835C395.916 222.788 396.388 223.809 396.505 223.199C397.664 216.818 396.372 218.974 395.608 215.384C397.006 216.304 398.143 214.458 398.448 209.52C398.616 206.545 397.939 207.042 397.565 205.122C397.454 204.549 397.953 202.479 397.657 202.093C396.692 200.828 395.593 202.77 396.068 197.753C396.068 197.753 396.068 197.753 396.068 197.753C396.068 197.75 396.069 197.748 396.069 197.746C396.076 197.668 396.147 197.705 396.238 197.753C396.357 197.815 396.51 197.894 396.595 197.753C396.595 197.753 396.595 197.753 396.595 197.753C396.628 197.696 396.651 197.605 396.657 197.465C396.837 192.512 395.813 191.959 395.441 186.683C395.154 182.531 395.084 175.123 394.496 170.408C396.088 170.295 395.06 165.867 393.673 164.26C393.197 161.212 392.497 157.975 391.992 155.025C391.817 154.012 392.4 154.571 392.419 154.434C392.718 152.321 391.389 151.254 391.193 150.621C389.077 143.721 388.084 137.851 385.071 131.615C384.961 131.393 383.868 131.379 383.934 129.393C383.939 129.263 385.179 131.232 384.072 128.181C382.976 125.137 381.134 119.26 378.792 115.377C378.231 114.433 376.328 112.307 375.898 110.053C375.842 109.752 376.242 109.911 376.191 109.459C376.015 108 374.785 107.794 374.778 105.969C374.771 104.15 373.694 100.833 370.851 97.1988C370.761 97.0812 369.545 96.5543 368.805 95.3258C367.628 93.3624 366.007 90.5412 364.666 88.5634C364.024 87.6163 364.043 88.4876 363.925 88.3278C359.386 82.1326 356.448 77.5142 351.274 71.0918C350.324 69.9096 347.024 67.0493 345.382 64.5918C343.553 61.9031 347.461 62.7704 341.841 57.8279C339.534 55.8495 335.016 55.1589 331.935 50.5941C323.925 43.9782 316.618 37.6312 307.582 32.3745C307.176 32.1377 305.566 31.9145 304.638 31.3284C303.258 30.4561 302.653 29.7291 301.661 29.1157C297.502 26.5448 293.446 24.6342 289.257 22.4887C287.662 21.6801 288.358 21.6779 286.441 20.7357C284.521 19.8054 283.071 19.5622 280.504 18.2215C278.561 17.2111 276.857 15.632 274.175 14.4856C273.787 15.1664 271.942 14.4004 268.546 13.3814C267.895 13.1874 268.49 13.6817 268.177 13.6027C266.906 13.2866 265.837 12.6831 264.615 12.4216C264.318 12.3577 264.223 12.594 263.976 12.5556C261.88 12.2291 258.756 10.6599 258.214 10.4036C256.143 9.39775 255.027 9.41829 253.381 8.81666C251.731 8.22335 254.302 8.73068 252.35 8.11894C248.313 6.85568 242.976 5.6888 238.766 4.89326C237.082 4.57624 238.175 5.08985 237.933 5.05141C234.446 4.47343 230.927 3.62831 228.916 3.94055C226.684 2.13345 226.793 3.76582 221.789 2.92553C221.4 2.86209 220.955 2.12723 222.497 2.17841C224.043 2.2304 226.336 2.70952 228.466 2.82988C228.971 2.85453 231.923 2.5912 232.327 2.61305C235.461 2.75704 235.703 3.92821 235.854 4.01187C237.57 4.96025 241.154 4.89507 242.085 5.03441C246.329 5.65484 249.79 6.65083 253.297 7.39296C255.584 7.88508 256.017 7.1986 257.782 7.72145C263.639 9.50409 265.289 11.2613 271.037 12.2726C272.268 12.5068 271.456 11.2006 275.342 13.4604C275.593 13.5995 278.381 15.4277 280.299 15.7895C280.54 15.8336 280.642 15.5803 280.942 15.6827C282.949 16.3776 284.15 17.1465 286.286 18.0109C288.416 18.8742 291.001 19.9379 293.302 21.217C294.694 21.9853 296.233 23.4067 296.836 23.8846C298.534 25.232 300.84 25.8142 301.752 26.8813C302.661 27.9585 300.068 27.2552 302.899 29.2887C303.405 28.6959 304.067 28.1719 304.648 27.6163C311.261 31.5804 317.394 36.0415 323.549 40.7041C324.312 41.2828 323.806 40.3374 324.632 40.9511C328.113 43.5507 330.839 46.204 334.307 49.0719C336.991 51.2919 340.139 53.5346 342.846 56.0043C343.748 58.2613 347.771 61.8798 350.338 64.8655C351.238 65.9073 350.97 66.0217 351.552 66.8108C353.733 69.7967 353.283 67.9077 354.058 68.5784C357.363 71.5002 355.997 73.099 359.176 77.0713C359.344 77.2767 362.255 79.2294 362.584 79.5602C364.689 81.6216 362.554 80.1779 363.559 81.6908C365.38 84.464 366.467 86.5023 368.89 89.5558C369.596 90.4432 371.696 92.3488 372.368 94.5273C372.456 94.8126 372.04 94.8776 372.142 95.0877C373.993 98.882 375.089 98.3715 376.666 100.27C378.246 102.178 379.253 105.882 379.373 106.67C379.715 108.725 378.426 105.447 378.314 105.385C377.057 104.623 378.452 106.95 379.328 108.828C378.368 109.646 379.706 112.195 380.234 110.775C380.291 110.614 379.467 109.223 379.328 108.828C381.231 109.904 382.821 112.725 383.232 116.401C383.41 118.125 382.237 116.944 384.411 121.431C385.379 123.473 385.85 122.336 386.828 124.104C389.073 128.164 390.324 134.045 391.86 138.519C392.419 140.138 392.389 138.402 392.786 139.506C393.836 142.443 394.236 145.191 395.215 148.178C395.304 148.448 395.634 147.648 395.886 148.589C397.787 155.742 398.749 162.144 399.864 169.783C400.419 173.466 401.448 180.083 401.647 183.953C401.904 188.303 401.746 193.213 401.566 197.753C401.47 200.257 401.373 202.61 401.383 204.642C401.384 208.363 401.963 207.566 402.273 209.198C402.881 212.367 401.079 217.716 400.784 218.411C400.781 218.429 400.936 215.233 400.492 216.905C399.796 217.832 400.785 218.372 400.784 218.411C400.627 218.89 399.757 225.251 399.662 226.515C399.625 227.207 400.217 226.904 400.188 227.264C399.45 235.871 397.823 244.396 395.217 252.767C395.164 252.912 394.626 252.518 394.51 252.86C392.868 257.626 392.599 260.942 391.662 265.047C390.715 269.146 389.347 272.223 387.407 274.086C386.359 277.053 384.084 281.001 382.711 283.205C381.342 285.411 382.293 286.288 382.218 286.506C379.758 293.272 377.134 296.594 373.217 302.865C371.358 305.861 367.675 311.797 365.546 314.977C363.881 317.5 362.554 318.777 361.013 321.101C360.803 321.415 361.488 321.466 361.436 321.57C360.064 324.456 359.878 322.401 359.287 322.75C357.128 323.998 355.878 324.794 353.646 328.082C353.135 328.835 352.913 332.191 351.869 333.523C350.515 335.245 350.534 334.143 349.113 335.937C348.989 336.089 349.349 336.371 348.365 337.384C343.799 342.089 338.457 346.838 333.334 351.306C332.631 351.915 334.008 351.689 332.997 352.579C328.249 356.754 322.728 360.983 317.485 364.224C316.193 365.019 316.682 364.055 316.326 364.118C314.158 364.508 312.532 367.186 312.144 367.467C303.023 374.142 294.865 377.251 284.702 382.529C284.163 382.823 280.295 386.096 277.828 385.737C277.657 385.718 275.231 385.326 273.793 386.806C273.702 386.898 275.178 387.041 272.989 387.8C270.8 388.557 267.442 390.22 264.188 390.511C263.151 390.608 260.537 390.109 257.96 391.914C257.813 392.041 253.927 395.515 251.917 394.372C251.59 394.18 251.463 392.503 248.209 394.169C247.583 394.487 248.876 394.572 247.176 395.207C244.558 396.182 240.895 396.485 237.687 397.817C237.132 398.053 234.813 399.617 232.663 399.062C232.33 398.975 232.839 398.33 231.778 398.426C226.735 398.871 221.467 399.829 216.309 399.802C214.479 399.789 215.349 398.821 213.444 398.69C211.529 398.563 207.763 398.473 205.788 398.919C203.812 399.367 206.011 400.794 203.015 400.938C202.63 400.955 202.244 400.97 201.859 400.982C201.859 400.982 201.859 400.982 201.859 400.982C201.859 400.982 201.859 400.982 201.859 400.982C189.228 401.395 176.765 399.44 164.455 397.01C162.575 396.632 164.038 397.449 161.261 396.904C150.966 395.05 133.463 390.092 125.544 385.472C119.214 381.876 127.839 384.78 122.912 382.31C120.548 381.115 117.251 381.428 116.641 381.198C110.711 378.996 107.167 376.302 102.132 373.707C101.094 373.166 101.757 374.322 100.875 373.852C97.8601 372.247 94.9572 370.114 92.1945 368.389C90.9553 367.614 90.9009 368.189 89.7991 367.412C87.1665 365.551 84.944 363.733 82.6989 361.497C82.4956 361.294 84.4153 361.916 82.5196 360.496C79.4496 358.19 76.0013 354.896 72.326 352.425C71.2365 351.691 70.4343 352.543 68.8322 350.081C68.4994 349.561 69.9725 349.036 66.7417 347.739C66.1997 347.539 61.0356 344.939 59.8405 342.265C59.5201 341.565 59.0309 339.483 57.8132 338.482C57.6444 338.348 57.7995 339.394 56.8484 338.497C53.5059 335.323 50.3216 331.691 47.1364 328.184C46.2853 327.246 47.0093 329.104 45.7568 327.685C42.3097 323.786 38.5044 318.498 35.7753 314.21C34.7685 312.628 35.9307 313.397 35.8988 313.253C35.4114 310.936 33.6819 310.557 33.2196 309.989C30.3762 306.452 29.056 303.198 26.8421 299.683C26.234 298.708 26.1362 299.706 25.9771 299.534C24.3594 297.718 26.1416 298.739 25.5041 297.373C23.7258 293.537 21.538 289.421 19.6403 285.606C18.9462 284.209 19.0943 286.084 18.4804 284.822C14.8393 277.35 11.716 269.225 9.56815 261.416C9.16489 259.941 9.93862 260.699 9.95045 260.361C10.0408 258.033 8.09307 255.305 7.79364 254.617C6.42379 251.522 6.51722 250.126 5.72382 247.278C1.76408 233.328 -0.100425 215.402 0.00416231 201.776C0.00363684 200.415 0.0181866 199.075 0.0462542 197.753C0.46316 181.867 2.33718 169.012 5.66196 153.793C5.89853 152.746 5.07438 153.671 5.27357 152.765C7.89641 141.074 11.8495 129.923 16.4864 118.882C16.8711 117.974 15.809 119.067 16.4155 117.602C17.6584 114.594 19.4512 110.903 21.0981 108.049C21.8986 106.661 21.3206 108.769 22.1178 107.371C23.9776 104.122 25.9367 100.639 27.8181 97.2953C28.6204 95.8735 26.9092 97.73 27.9936 95.902C35.4045 83.4661 44.0165 71.9907 54.4628 61.7924C55.1818 61.0944 56.4828 61.1159 57.8224 59.4749C57.7417 59.1765 57.5101 58.9656 57.354 58.7185C71.9705 43.6373 89.0361 31.3698 107.621 21.701C108.405 21.2952 106.845 21.6176 108.367 20.8326C117.2 16.305 126.055 12.4394 135.778 9.56208C136.742 9.28151 136.474 10.0774 139.245 9.07C139.73 8.88163 143.956 7.49283 145.018 7.05536C145.163 6.99236 144.293 6.91565 145.67 6.51822C153.7 4.2136 162.258 2.4817 170.512 1.4533C171.847 1.28844 170.476 1.78523 171.426 1.67088C178.115 0.856815 185.415 -0.00147414 191.892 -2.67029e-05C196.19 0.014876 194.62 0.532065 196.909 0.921432C197.232 0.973072 199.892 0.951875 200.032 1.2094C200.389 1.84476 199.115 2.564 199.648 3.24048C199.734 3.3498 201.858 3.2526 201.859 3.38051C201.859 3.38054 201.859 3.38056 201.859 3.38059C201.859 3.41764 201.674 3.47242 201.199 3.55882C201.052 3.58027 198.502 3.74865 197.881 3.89542C197.447 3.99406 198.236 4.22918 197.351 4.36842C196.468 4.50998 195.488 4.3269 194.03 4.53302C192.57 4.74866 193.245 5.00173 190.313 5.24867ZM376.279 292.967C374.603 294.76 376.368 296.158 377.153 293.625C377.188 293.501 376.364 292.873 376.279 292.967ZM316.642 37.0133C318.789 39.3176 321.035 39.8431 319.569 38.1492C318.084 36.4624 315.979 36.3144 316.642 37.0133ZM288.892 21.0312C291.916 23.0414 293.282 21.6425 289.625 20.254C289.412 20.1739 288.714 20.9149 288.892 21.0312ZM186.365 1.54631C186.398 1.55466 188.303 1.43561 188.349 1.42225C189.344 1.04941 185.527 1.27998 186.365 1.54631ZM259.246 9.82804C260.248 10.3586 263.419 11.1031 262.172 10.4084C261.164 9.84272 257.988 9.1583 259.246 9.82804ZM286.53 374.938C286.482 374.923 285.238 375.478 285.347 375.646C285.704 376.189 287.344 375.205 286.53 374.938ZM206.247 1.46955C214.181 1.70986 218.908 3.27036 210.309 2.61884C208.755 2.5213 213.675 2.43428 211.7 2.23456C208.083 1.88287 205.654 2.48966 201.928 2.11332C201.25 2.04177 205.793 1.44529 206.262 1.46834C206.257 1.46874 206.252 1.46915 206.247 1.46955ZM373.286 292.874C373.24 292.902 372.29 294.532 372.291 294.585C372.402 295.828 374.322 292.531 373.286 292.874ZM209.716 392.453C209.612 392.401 205.267 392.46 205.123 392.513C202.861 393.818 211.709 393.709 209.716 392.453ZM394.528 170.328C393.634 168.403 393.188 166.007 393.674 164.269C393.977 166.279 394.286 168.313 394.528 170.328Z" fill="#C4A77D"/>
</svg>
