<svg width="350" height="16" viewBox="0 0 350 16" fill="none" xmlns="http://www.w3.org/2000/svg">
<path d="M3.33377 0.0586748C5.29507 -0.120531 7.86602 0.138406 9.81991 0.465087C10.4323 0.566559 10.1222 0.978746 10.5449 1.06707C11.3716 1.23897 12.1418 1.04493 12.9588 1.247C13.2296 1.31585 12.8926 1.96803 13.1765 2.02492C14.7322 2.33119 16.204 2.17974 17.7801 2.33466C25.543 3.09552 33.1737 3.39643 41.0316 3.74478C43.6226 3.86004 46.7722 4.44179 49.4484 4.21687C49.7608 4.19022 49.5746 3.65151 49.634 3.60768C50.5663 2.9382 50.2563 4.01955 50.865 4.16769C53.2809 4.75305 55.9674 4.81506 58.2924 4.62678C59.2816 4.54514 58.2898 3.49007 59.2858 4.08584C59.3549 4.12601 59.104 4.6842 59.3752 4.74566C59.9904 4.88375 61.1575 4.79104 61.6343 4.83824C62.5531 4.93179 62.7052 4.92699 63.5743 4.93858C64.7623 4.95955 66.1755 5.24213 67.4502 5.12428C67.7223 5.09763 67.3621 4.53085 67.796 4.43786C68.2303 4.3451 69.3793 4.40141 69.7667 4.53648C70.1541 4.67166 69.9891 5.11186 70.0577 5.21346C70.6218 6.06953 71.9509 4.89546 72.1219 4.86843C75.2398 4.39391 77.9136 5.07932 80.8404 5.09277C83.0622 5.10268 85.438 4.90149 87.5522 4.94467C90.0709 4.99825 92.2056 5.30166 94.6525 5.26544C94.9107 5.26234 94.6081 4.63343 94.9235 4.62872C98.2744 4.57929 101.602 4.67433 104.938 5.10929C105.273 5.15333 104.842 5.68925 105.176 5.76511C107.223 6.22077 110.461 7.2723 111.677 4.96968C113.063 5.06885 114.746 5.17324 115.987 5.64081C116.786 5.94139 116.01 6.50954 116.992 6.26943C117.214 6.21604 116.926 5.71475 117.258 5.67284C118.657 5.49747 120.185 5.66704 121.569 5.41881C121.851 5.36724 121.774 4.9236 121.853 4.84434C122.524 4.20374 123.64 5.27823 123.883 5.35601C125.735 5.94228 127.088 5.72113 128.814 5.74454C129.214 5.75011 128.741 5.1618 129.126 5.14652C131.124 5.07547 133.195 5.14067 135.151 5.40845C135.587 5.46933 135.186 5.95856 135.394 6.01262C136.312 6.24392 136.515 5.31902 137.395 5.5242C137.58 5.56614 137.475 5.98412 137.509 6.03027C138.039 6.75362 138.499 5.73409 138.635 5.71276C140.357 5.41588 141.458 6.48051 143.122 6.33613C143.321 6.3181 142.872 5.79337 143.432 5.77505C147.16 5.65021 151.103 5.81783 154.793 6.23943C155.367 6.30426 154.957 6.68388 154.993 6.73112C155.582 7.46677 155.962 6.48444 156.149 6.44862C157.625 6.18982 159.004 7.01073 160.007 5.85662C166.257 6.28283 172.479 5.68874 178.677 6.70549C178.756 6.71716 178.615 7.17323 178.772 7.19442C180.665 7.45386 180.302 6.74415 181.555 5.88912C181.87 5.67535 182.83 6.71727 182.915 6.79275C183.224 7.07329 182.904 7.74385 183.007 7.79822C183.865 8.22306 183.725 6.00623 184.882 6.01239C184.918 6.01622 184.766 6.42219 184.863 6.46303C185.165 6.59105 185.464 6.43081 185.759 6.5716C186.434 6.8977 186.675 7.96484 187.707 7.34541C187.837 7.2653 187.638 6.02067 188.671 6.08486C189.083 6.11127 190.905 6.09919 191.416 6.18142C191.926 6.26348 191.576 6.65831 191.612 6.67572C192.987 7.20381 192.466 7.41905 193.154 8.19265C193.843 8.96145 193.652 7.12674 193.933 6.92301C194.214 6.72004 195.222 7.15216 195.469 7.30103C195.717 7.45026 195.408 7.6992 195.628 7.78358C197.088 8.33331 196.269 6.87989 196.75 6.5925C197.884 5.91489 198.767 7.26357 199.805 7.39456C200.085 7.43037 199.856 7.12544 200.106 7.09753C201.097 6.99172 201.693 7.40766 202.819 7.0303C203.004 6.9682 203.915 6.1766 204.504 6.76178C204.588 6.84597 204.351 7.17447 204.773 7.24894C205.403 7.36076 206.539 7.43362 207.217 7.32561C207.718 7.24585 207.144 6.70692 207.774 6.87572C208.054 6.95091 207.535 7.26399 208.061 7.37861C208.584 7.49305 209.922 7.48076 210.431 7.47071C210.939 7.46036 210.661 7.05604 210.702 7.02884C210.951 6.87339 211.926 6.6824 212.012 6.68329C216.358 6.65339 220.366 7.32834 224.598 7.11851C224.93 7.1029 224.709 6.69347 224.76 6.68688C225.897 6.51981 225 7.60308 225.795 7.96648C225.68 7.13905 226.149 7.28964 226.949 7.20087C227.335 7.15749 227.125 6.83808 227.16 6.80548C227.733 6.32345 228.131 6.95004 228.234 7.07755C228.613 7.54753 229.025 6.99446 229.283 7.30806C229.541 7.61864 228.948 8.07878 229.716 8.0726C229.931 7.78031 229.361 7.01426 229.944 6.89201C232.144 6.43285 236.251 7.04364 238.021 7.10608C239.786 7.17108 240.356 7.12021 241.385 7.2247C243.243 7.41276 242.562 6.86512 243.716 6.62095C244.874 6.37769 244.311 7.70916 244.477 7.99636C244.641 8.28279 244.819 7.98786 245.022 8.1451C245.224 8.30205 244.786 8.49736 245.262 8.55548C245.739 8.61292 247.041 8.10402 247.21 7.8076C247.567 7.17866 246.98 6.51666 248.241 6.7533C248.314 6.76725 248.078 7.1131 248.356 7.14883C250.561 7.42039 252.852 7.44025 255.054 7.67348C255.357 7.70595 255.086 8.08271 255.263 8.1057C257.098 8.3451 256.442 7.71079 257.448 7.01229C257.222 7.94475 257.779 8.51541 259.172 8.51735C260.009 8.51929 259.865 8.11525 260.407 7.83106C260.569 7.74559 261.162 8.02209 261.269 7.83291C261.624 7.21532 261.065 6.52242 262.502 6.80298C262.565 6.81621 262.364 7.15263 262.582 7.17361C263.989 7.31008 264.158 6.6692 265.679 6.59946C266.872 6.54514 268.993 6.9399 270.351 7.00547C270.323 8.00986 271.605 7.77827 272.126 7.09246C273.007 7.12307 273.959 7.08731 274.811 7.18383C275.104 7.21669 274.911 7.50214 274.948 7.53314C275.515 8.01799 275.898 7.35678 276.088 7.33174C278.15 7.08683 279.83 7.58385 281.797 7.10848C281.867 7.09121 281.98 6.42297 282.506 6.91314C282.54 6.94667 281.891 7.24917 282.816 7.27487C283.742 7.30155 285.487 7.65819 286.772 7.35521C287.083 7.28187 287.87 6.75302 288.501 7.16994C288.585 7.22644 288.493 7.41364 288.615 7.5181C289.007 7.85033 289.221 7.19203 289.683 7.75165C290.144 8.31139 291.104 8.72357 292.4 8.3391C292.441 8.32781 292.748 7.81192 293.155 7.82049C293.806 7.83431 294.73 7.94115 295.409 7.93769C295.734 7.9359 295.526 7.61931 295.583 7.61353C297.77 7.4396 299.327 7.72319 301.67 7.84291C302.099 7.86483 303.334 7.44707 304.165 7.77862C305.078 8.13979 304.14 9.64289 306.239 9.27469C307.085 9.12439 308.157 7.24631 309.678 8.21666C312.628 7.97703 315.357 8.45908 318.315 8.12291C318.448 8.10792 318.869 7.60569 319.181 7.61323C319.646 7.62505 319.901 7.85892 320.232 7.87427C321.621 7.94432 322.893 7.74669 324.232 7.77858C324.741 7.79001 324.563 8.02674 325.17 8.03963C325.776 8.052 326.18 7.74248 327.001 7.8921C327.622 8.00632 328.242 8.63359 329.066 8.7031C329.097 8.08621 329.663 8.0982 330.668 7.93629C330.861 7.90495 330.654 7.69179 330.745 7.66603C331.117 7.55681 331.461 7.73341 331.815 7.61474C331.9 7.58627 331.905 7.37827 331.975 7.34337C332.572 7.03938 333.556 7.5086 333.725 7.58897C334.373 7.89639 334.676 7.62867 335.172 7.74955C335.669 7.86977 334.927 8.01982 335.506 8.09236C336.707 8.24179 338.25 8.20619 339.47 8.2141C339.957 8.21592 339.625 7.94817 339.695 7.94219C340.701 7.87495 341.719 8.1565 342.277 7.62882C342.975 8.99255 342.884 7.49675 344.322 7.77119C344.436 7.79338 344.58 8.43171 344.145 8.52691C343.71 8.62227 343.05 8.42314 342.446 8.5722C342.303 8.60666 341.485 9.21633 341.373 9.25438C340.498 9.54839 340.374 8.57652 340.327 8.52291C339.802 7.94644 338.802 8.60702 338.538 8.65479C337.333 8.86923 336.309 8.73458 335.301 8.8903C334.641 8.99112 334.577 9.64601 334.059 9.63004C332.338 9.57904 331.737 8.6537 330.115 9.46849C329.767 9.64271 330.113 10.3713 328.867 9.80655C328.788 9.77152 327.863 9.24848 327.328 9.58736C327.261 9.63017 327.263 9.84531 327.175 9.86413C326.582 9.98626 326.186 9.81762 325.539 9.90552C324.893 9.99352 324.116 10.1248 323.378 10.0574C322.933 10.0174 322.362 9.61306 322.149 9.51391C321.548 9.22827 320.904 9.70795 320.531 9.35848C320.156 9.00589 320.89 8.4664 319.905 8.23887C319.869 8.81554 319.785 9.40796 319.726 9.98886C317.568 9.98766 315.444 9.81534 313.279 9.8578C313.01 9.86378 313.285 10.1802 312.997 10.1951C311.783 10.2574 310.722 10.0377 309.463 10.1401C308.488 10.2207 307.419 10.5756 306.4 10.6744C305.777 9.98382 304.265 10.2327 303.166 10.1787C302.781 10.1598 302.807 9.97076 302.533 9.91122C301.501 9.69064 301.985 10.3136 301.702 10.4149C300.487 10.8497 300.383 9.42539 298.951 9.46762C298.875 9.4688 297.948 10.2421 297.82 10.2918C297.009 10.6114 297.686 10.0254 297.178 9.9726C296.251 9.87609 295.607 9.69464 294.519 9.9303C294.201 9.99961 293.44 10.4933 292.824 10.1215C292.743 10.0727 292.788 9.81357 292.723 9.79888C291.542 9.55358 291.511 10.3697 290.836 10.6541C290.161 10.9391 289.119 10.3825 288.907 10.2194C288.352 9.79897 289.332 10.0347 289.362 9.99275C289.715 9.49542 288.955 9.58549 288.374 9.54697C288.29 8.73711 287.478 8.78792 287.772 9.5102C287.806 9.58898 288.258 9.5106 288.374 9.54697C287.864 10.3447 286.972 10.4593 285.986 9.71648C285.524 9.36789 285.96 8.9552 284.558 9.11145C283.922 9.18222 284.168 9.74775 283.606 9.90647C282.324 10.2703 280.657 9.75028 279.334 9.84256C278.854 9.87668 279.322 10.1892 278.994 10.2237C278.123 10.3169 277.355 10.0848 276.481 10.214C276.402 10.2262 276.595 10.5583 276.323 10.565C274.262 10.6236 272.467 10.424 270.315 10.436C269.275 10.4418 267.416 10.648 266.339 10.6199C264.472 10.574 262.175 10.0835 260.581 10.2189C259.54 10.3066 259.768 10.6584 259.323 10.9038C258.463 11.3814 256.94 10.556 256.735 10.4254C256.729 10.4211 257.624 10.3299 257.147 10.1506C256.869 9.77092 256.745 10.4236 256.735 10.4254C256.601 10.3422 254.813 10.2746 254.458 10.3461C254.265 10.3853 254.372 10.7254 254.272 10.7395C251.881 11.0666 249.486 11.1827 247.061 11.0437C247.018 11.037 247.082 10.6459 246.982 10.6351C245.578 10.4729 244.679 10.9599 243.521 11.2594C242.364 11.5583 241.446 11.4747 240.76 10.7968C239.887 10.8911 238.634 10.599 237.912 10.4191C237.191 10.2391 237.091 11.0242 237.027 11.0404C235.048 11.5574 233.904 11.12 231.851 11.0674C230.875 11.0414 228.938 11.1759 227.881 11.275C227.046 11.3547 226.543 11.17 225.773 11.2992C225.669 11.3165 225.774 11.6769 225.743 11.6912C224.884 12.134 225.296 11.2443 225.119 11.0879C224.476 10.519 224.079 10.2131 222.979 10.4934C222.725 10.5569 221.986 11.8494 221.523 11.9311C220.922 12.034 221.149 11.5688 220.519 11.6878C220.466 11.6976 220.477 11.9833 220.088 11.9753C218.284 11.9423 216.318 11.7966 214.443 11.8467C214.187 11.8525 214.515 12.3101 214.145 12.3265C212.41 12.4032 210.507 12.4118 208.816 12.213C208.399 12.1625 208.66 11.8308 208.57 11.7343C208.015 11.1492 207.228 12.0165 207.099 12.0351C204.002 12.4887 201.632 11.7278 198.476 12.1411C198.304 12.1643 196.982 13.131 196.392 12.3233C196.352 12.2699 195.768 11.4401 195.252 12.0177C195.22 12.054 195.583 12.4805 194.949 12.4445C194.314 12.408 193.292 12.7109 192.42 12.2443C192.144 12.0979 191.491 11.26 190.667 11.9422C190.613 11.9883 189.341 13.5338 188.887 12.4838C188.814 12.3109 188.891 11.1908 187.907 11.775C187.719 11.8885 188.06 12.1347 187.565 12.2968C186.807 12.5472 185.802 12.2568 184.87 12.7719C184.707 12.8626 184.015 13.6416 183.46 13.0652C183.373 12.9748 183.538 12.5938 183.245 12.555C181.851 12.368 180.391 12.6408 178.975 12.3928C178.474 12.3054 178.73 11.6824 178.207 11.521C177.685 11.3597 176.631 11.2077 176.084 11.4981C175.537 11.7891 176.135 12.7782 175.315 12.8684C171.752 13.2632 168.223 12.7199 164.665 12.6721C164.137 12.6653 164.575 13.0269 163.797 13.0439C160.93 13.1058 155.98 13.5276 153.492 12.7572C151.499 12.1369 154.008 11.6216 152.484 11.3742C151.749 11.2545 150.954 12.4939 150.777 12.5354C149.043 12.9506 147.839 12.4159 146.279 12.6019C145.956 12.6408 146.272 13.1426 145.998 13.1704C145.062 13.2702 144.077 13.0562 143.182 13.1086C142.781 13.1334 142.855 13.5217 142.485 13.4966C141.601 13.4409 140.82 13.2874 139.958 12.9304C139.879 12.8977 140.409 12.4046 139.755 12.3934C138.697 12.3773 137.383 12.0254 136.165 12.4153C135.803 12.5324 135.789 13.438 135.013 12.8218C134.85 12.6931 135.058 11.6015 134.153 12.5524C134.001 12.7092 132.481 14.0035 131.735 13.1903C131.538 12.9763 131.036 12.0832 130.601 12.2286C130.542 12.2518 130.778 12.7409 130.418 12.793C129.149 12.9682 127.819 12.9309 126.516 13.1017C126.168 13.1485 126.686 13.6558 126.167 13.7096C124.74 13.8587 122.959 13.7521 121.564 13.6073C121.049 13.553 121.405 13.1177 121.367 13.0714C120.765 12.3155 120.41 13.3493 120.21 13.4124C118.967 13.7888 118.021 13.315 116.876 13.4578C116.56 13.4961 116.784 13.9891 116.721 14.0341C116.069 14.4753 116.555 13.5778 116.142 13.4848C114.985 13.2209 113.695 13.2754 112.525 13.3537C112.095 13.3832 112.578 13.9576 112.192 13.9778C109.909 14.1086 107.536 14.0871 105.308 13.7909C104.889 13.734 105.153 13.2763 105.065 13.1736C104.463 12.4538 103.58 13.4551 103.376 13.553C102.452 13.9971 102.093 13.5981 101.277 13.6836C97.2914 14.1113 92.3696 13.9084 88.6069 13.7833C83.7038 13.6262 79.8991 13.2122 75.2234 13.3831C74.9262 13.3935 75.2259 14.0342 74.9697 14.0516C71.6624 14.2498 68.4063 14.0365 65.0923 14.2678C64.8204 14.2858 65.2124 14.9038 64.7759 14.9541C63.8806 15.0616 62.7465 15.0445 61.8412 14.8567C61.3997 14.7662 61.9919 14.2199 61.5475 14.1393C60.5127 13.9503 59.4034 13.9181 58.3405 14.0323C57.8881 14.0824 58.5706 14.7199 57.9827 14.7353C53.9776 14.8522 50.0443 15.0264 45.997 14.2201C45.7196 14.1649 45.4761 12.8207 44.8862 13.0848C44.8418 13.4595 44.8442 13.8997 44.8248 14.3C38.9945 14.5899 33.2237 14.1889 27.3771 14.1805C27.1306 14.1805 27.5566 14.9139 27.0794 14.9181C24.3172 14.9423 21.6349 15.1881 18.8095 14.4773C18.5291 14.4077 18.6729 13.0851 17.8468 13.293C17.7011 13.3309 16.4569 13.5199 16.1352 13.8116C16.0915 13.8556 16.3185 14.4723 15.9175 14.4952C13.5875 14.6174 11.1458 14.5066 8.81989 14.1493C8.4445 14.0903 8.84426 13.4173 8.57689 13.3693C6.6803 13.0317 4.61734 13.5636 2.80505 12.9676C1.59197 12.565 2.04109 11.3914 1.39647 10.2421C1.3053 10.0798 0.55412 10.057 0.515274 9.38516C0.415546 7.69552 0.779392 5.8469 0.630097 4.04617C0.605736 3.74652 0.000129779 3.92312 0 3.58898C0 3.58891 0 3.58884 0 3.58877C3.82288e-05 3.49028 0.0526457 3.34742 0.188163 3.13521C0.229774 3.07272 0.959143 2.76807 1.13879 2.45238C1.26386 2.23412 1.03847 1.54914 1.29366 1.27109C1.54883 0.993555 1.82923 1.56834 2.2523 1.24361C2.67518 0.915132 2.48924 0.138249 3.33377 0.0586748ZM234.665 9.60852C233.998 9.23165 233.899 10.6253 234.621 10.2868C234.656 10.2688 234.7 9.62695 234.665 9.60852ZM315.456 9.0267C314.583 8.56834 313.986 9.25142 314.602 9.60525C315.218 9.95688 315.722 9.16473 315.456 9.0267ZM324.509 8.66209C323.488 8.31366 323.328 9.74799 324.421 9.45114C324.484 9.43432 324.568 8.6822 324.509 8.66209ZM4.38586 9.90316C4.37665 9.87167 3.83667 9.84279 3.82377 9.87411C3.53624 10.6303 4.61597 10.6859 4.38586 9.90316ZM333.492 8.29487C333.173 8.10945 332.256 8.32558 332.652 8.5567C332.97 8.74194 333.888 8.52466 333.492 8.29487ZM199.833 8.14579C199.822 8.12287 199.435 8.10238 199.443 8.23216C199.469 8.65012 200.008 8.53119 199.833 8.14579ZM348.759 8.25556C346.503 8.21421 345.136 7.1367 347.592 7.26577C348.037 7.28839 346.633 7.603 347.199 7.7002C348.236 7.87477 348.923 7.21249 349.981 7.56953C350.172 7.63371 348.888 8.25948 348.755 8.25703C348.756 8.25654 348.758 8.25605 348.759 8.25556ZM234.281 7.93886C234.267 7.92047 233.732 7.90296 233.719 7.92123C233.428 8.36421 234.508 8.39818 234.281 7.93886ZM177.243 7.14809C177.214 7.10201 175.97 7.05601 175.93 7.09852C175.281 7.95054 177.795 8.04 177.243 7.14809ZM270.372 7.03231C270.957 6.63881 271.657 6.59731 272.123 7.09195C271.542 7.06406 270.957 7.05842 270.372 7.03231Z" fill="#0B3D2E"/>
</svg>
