<svg width="128" height="47" viewBox="0 0 128 47" fill="none" xmlns="http://www.w3.org/2000/svg">
<path d="M25.4087 0.0606059C27.12 0.0123473 29.3632 -0.00142115 31.0679 0.00782436C31.6022 0.0105388 31.3317 0.0617097 31.7005 0.0661611C32.4218 0.0751253 33.0938 0.0424727 33.8067 0.0558242C34.0429 0.0606225 33.7488 0.142264 33.9966 0.145774C35.354 0.165171 36.6381 0.131021 38.0132 0.133726C44.7864 0.15034 51.4443 0.135376 58.3004 0.134147C60.561 0.133002 63.3091 0.21719 65.6441 0.158998C65.9166 0.151988 65.7541 0.0528458 65.806 0.044269C66.6194 -0.0881523 66.3489 0.116432 66.88 0.140434C68.9879 0.23492 71.3319 0.23558 73.3605 0.184104C74.2235 0.161905 73.3582 -0.045589 74.2272 0.0685145C74.2876 0.0762787 74.0686 0.191119 74.3053 0.202095C74.842 0.226866 75.8603 0.20173 76.2763 0.208903C77.078 0.22347 77.2107 0.221796 77.969 0.219765C79.0056 0.217832 80.2385 0.27175 81.3507 0.240402C81.5881 0.233263 81.2738 0.112065 81.6524 0.0893168C82.0314 0.0665532 83.0339 0.0718265 83.3719 0.0995374C83.7099 0.127232 83.566 0.225703 83.6258 0.24785C84.118 0.435681 85.2777 0.168635 85.4268 0.160855C88.1472 0.0364712 90.4801 0.179307 93.0338 0.170645C94.9724 0.163104 97.0452 0.102567 98.8898 0.103046C100.885 0.104084 102.603 0.160565 104.5 0.156826C104.7 0.15643 104.901 0.157927 105.104 0.16133C105.337 0.16604 105.069 -0.0053041 105.354 0.00121641C108.386 0.0775265 111.398 0.790652 114.099 2.13367C114.369 2.26891 113.954 2.24364 114.218 2.38708C115.871 3.23587 118.049 5.07535 119.293 5.28443C120.254 6.09188 121.329 7.18249 121.958 8.11409C122.359 8.71509 121.784 8.29066 122.397 8.91991C122.533 9.06393 122.487 8.77047 122.683 8.99552C123.51 9.94659 124.233 11.1209 124.9 12.1763C125.036 12.3914 125.12 12.2675 125.175 12.3198C125.644 12.7657 125.785 13.8292 125.845 14.0375C126.346 15.6391 126.778 16.7707 127.124 18.2863C127.201 18.6391 127.287 18.1824 127.366 18.5229C127.725 20.0916 127.887 21.7599 127.828 23.3497C127.821 23.551 127.81 23.7504 127.797 23.9478C127.767 24.3397 127.621 23.9744 127.598 24.1603C127.492 24.9736 127.774 25.1802 127.629 25.9649C127.597 26.1301 127.474 26.0206 127.455 26.0493C127.171 26.4916 127.434 26.9385 127.421 27.0648C127.262 28.618 126.68 29.5004 126.252 30.9152C126.199 31.0853 126.496 30.7622 126.334 31.2385C125.255 34.4203 123.237 37.4759 120.79 39.6991C120.409 40.0444 120.579 39.6935 120.544 39.705C119.997 39.8885 119.978 40.3585 119.861 40.4814C118.936 41.4376 117.782 41.9305 117.255 42.7585C113.442 45.1518 108.981 46.5954 104.5 46.4527C104.5 46.4527 104.5 46.4527 104.5 46.4527C103.43 46.4197 102.36 46.371 101.292 46.2992C101.223 46.295 101.346 46.1275 101.209 46.1198C99.5569 46.0256 99.8742 46.286 98.7812 46.6041C98.5058 46.6839 97.6682 46.2996 97.5941 46.2714C97.3241 46.1676 97.6041 45.9187 97.5137 45.8986C96.7655 45.7409 96.8875 46.5641 95.8782 46.564C95.8466 46.5626 95.9792 46.4112 95.8945 46.3961C95.6313 46.3488 95.3703 46.4089 95.1128 46.3567C94.5234 46.2359 94.3134 45.8365 93.4132 46.0688C93.2992 46.099 93.4732 46.5652 92.5721 46.5427C92.2129 46.5334 90.6227 46.5406 90.177 46.5103C89.7319 46.4799 90.0375 46.3302 90.0058 46.3237C88.8064 46.1252 89.2612 46.0433 88.6603 45.7502C88.0595 45.4584 88.2261 46.1545 87.9811 46.232C87.7358 46.3094 86.8564 46.1459 86.6403 46.0892C86.4243 46.0325 86.6937 45.9376 86.5017 45.9055C85.2283 45.696 85.9427 46.2502 85.5231 46.3602C84.5339 46.6204 83.7634 46.1055 82.8578 46.0552C82.6128 46.0416 82.8127 46.1586 82.5945 46.1694C81.7303 46.2107 81.2106 46.0508 80.2274 46.1968C80.0666 46.2207 79.2717 46.5274 78.7573 46.3016C78.6844 46.2691 78.8914 46.1419 78.5231 46.1133C77.9729 46.0703 76.9816 46.0423 76.3901 46.0845C75.9535 46.1157 76.454 46.3248 75.9044 46.2596C75.6601 46.2305 76.1128 46.1086 75.6539 46.0642C75.1974 46.0198 74.0303 46.0249 73.5862 46.029C73.1429 46.0331 73.3855 46.1909 73.3497 46.2015C73.1329 46.2623 72.2821 46.3376 72.2069 46.3373C68.4146 46.3523 64.9175 46.0876 61.2252 46.1715C60.9354 46.1777 61.1284 46.34 61.0842 46.3426C60.0922 46.4094 60.8743 45.9794 60.1814 45.8353C60.2815 46.1636 59.8725 46.1039 59.1737 46.1394C58.837 46.1567 59.0204 46.2835 58.9897 46.2965C58.4903 46.4882 58.1426 46.2394 58.0531 46.1887C57.7224 46.0019 57.3625 46.2219 57.1374 46.0972C56.9125 45.9736 57.4301 45.7906 56.76 45.793C56.5721 45.9093 57.0696 46.2141 56.5608 46.2629C54.6411 46.4465 51.0577 46.2039 49.5142 46.179C47.9738 46.1531 47.4762 46.1735 46.5786 46.1318C44.9572 46.0566 45.5514 46.2756 44.5446 46.3733C43.5349 46.4707 44.0257 45.9381 43.8806 45.8232C43.7381 45.7086 43.5825 45.8266 43.4053 45.7637C43.2287 45.7009 43.6111 45.6228 43.1956 45.5995C42.7799 45.5766 41.6433 45.7801 41.496 45.8987C41.1845 46.1502 41.6967 46.415 40.5967 46.3203C40.5334 46.3147 40.7387 46.1764 40.4965 46.1621C38.5725 46.0534 36.5737 46.0453 34.6521 45.9521C34.3878 45.9391 34.6241 45.7888 34.4703 45.7796C32.8686 45.6842 33.4412 45.9373 32.5634 46.2155C32.7605 45.8439 32.275 45.6164 31.0594 45.6159C30.3287 45.6153 30.4545 45.7761 29.9819 45.8891C29.8401 45.9231 29.323 45.8131 29.2293 45.8883C28.9204 46.1337 29.4074 46.4093 28.1541 46.2972C28.0992 46.292 28.2742 46.1584 28.0842 46.1501C26.8561 46.0956 26.7091 46.3497 25.3816 46.3764C24.6504 46.3912 23.5191 46.3174 22.5 46.2637C22.0583 46.2411 21.6424 46.2087 21.2868 46.182C21.3264 45.7929 20.2169 45.8088 19.7229 46.0114C18.9513 45.9063 18.1178 45.7733 17.3906 45.5666C17.1412 45.4954 17.3325 45.4253 17.3034 45.4061C16.8659 45.1083 16.478 45.2673 16.3123 45.2309C14.531 44.8169 13.2321 44.0702 11.6204 43.411C11.5641 43.3871 11.3472 43.5666 11.0356 43.1685C11.0169 43.1422 11.5698 43.3302 10.8701 42.9093C10.1655 42.4876 8.97777 41.5138 8.04083 40.875C7.8124 40.7249 7.14857 40.4195 6.8518 39.9169C6.81268 39.8502 6.92035 39.8544 6.87039 39.752C6.71006 39.4235 6.39892 39.4679 6.26858 39.029C6.1397 38.5884 5.68801 37.8918 4.88331 37.0993C4.85839 37.0741 4.53949 36.9826 4.33056 36.6929C3.99559 36.2327 3.57864 35.5411 3.27124 35.0341C3.12389 34.7918 3.11679 35.0078 3.08946 34.9667C2.06257 33.3436 1.57678 32.0402 0.990847 30.0809C0.882378 29.7256 0.445451 28.7185 0.420255 27.9761C0.402289 27.1689 1.04624 27.871 0.653813 26.1218C0.516221 25.4483 -0.186115 24.6052 0.0636944 23.3497C0.0636944 23.3497 0.0636944 23.3497 0.0636944 23.3497C0.0744815 23.2958 0.0870429 23.2415 0.101497 23.1866C0.0435042 20.6122 0.614818 18.2753 1.3597 15.8198C1.39264 15.7102 1.36135 15.3056 1.46575 15.051C1.62003 14.6741 1.78005 14.5 1.90149 14.2369C2.41469 13.1396 2.88987 12.1301 3.5332 11.1495C3.77978 10.7793 3.75585 10.9504 4.05878 10.517C4.3651 10.088 4.49367 9.74202 4.98021 9.21158C5.35065 8.81285 5.84948 8.53259 6.35134 8.03106C6.23125 7.88034 6.56423 7.51782 7.17035 6.8824C7.28741 6.76058 7.11001 6.83541 7.16325 6.77526C7.38011 6.5292 7.64184 6.37002 7.85369 6.14202C7.90543 6.08667 7.86714 6.0359 7.90762 5.98801C8.24918 5.57494 9.02962 5.16358 9.16332 5.09924C9.67607 4.84107 9.85016 4.6279 10.234 4.42008C10.6178 4.21578 10.097 4.60227 10.5341 4.34855C11.4382 3.82294 12.6199 3.18347 13.5961 2.76813C13.9857 2.60153 13.6904 2.64555 13.7455 2.62005C14.5472 2.25839 15.4112 2.04719 15.8355 1.76605C16.5254 1.95536 16.3301 1.56055 17.5748 1.34651C17.6735 1.33129 17.8308 1.47052 17.469 1.57951C17.109 1.68892 16.54 1.7798 16.0522 1.97168C15.9354 2.01344 15.3151 2.39547 15.2313 2.43987C14.5552 2.77031 14.3601 2.5652 14.3161 2.56377C13.8302 2.57571 13.1078 3.10488 12.9135 3.2185C12.002 3.72624 11.2178 4.13359 10.5109 4.64373C10.0513 4.97997 10.1176 5.1745 9.75555 5.42646C8.57267 6.28321 7.98409 6.41238 7.15197 7.5554C6.98052 7.80585 7.33896 7.74524 6.48628 8.3922C6.4328 8.43081 5.77963 8.90856 5.57447 9.3334C5.54861 9.38633 5.60233 9.42827 5.55963 9.49038C5.2744 9.90653 5.02736 10.1409 4.73118 10.6035C4.4356 11.0669 4.11125 11.6392 3.7756 12.1654C3.57278 12.4807 3.22437 12.8418 3.11114 12.9875C2.78632 13.3966 2.69148 13.9637 2.4568 14.2035C2.21879 14.4503 2.31122 13.7939 1.89899 14.5469C2.06312 14.6517 2.21689 14.7954 2.37677 14.9159C1.68046 16.5999 1.14471 18.3336 0.899332 20.1524C0.870111 20.3771 1.00985 20.1633 0.982871 20.4039C0.875085 21.415 0.742493 22.2928 0.778362 23.3497C0.778362 23.3497 0.778362 23.3497 0.778362 23.3497C0.778655 23.3576 0.778958 23.3656 0.779271 23.3735C0.811175 24.1999 0.992541 25.0862 1.13362 25.9256C0.945515 26.4719 1.24213 27.7222 1.45881 28.6174C1.53252 28.9314 1.46184 28.929 1.50238 29.1575C1.66803 30.0179 1.77361 29.5595 1.87747 29.7756C2.34658 30.6884 1.87814 30.9471 2.36715 32.0686C2.39113 32.1318 2.97864 32.7237 3.04494 32.8078C3.45588 33.3635 3.00556 32.9532 3.18366 33.3427C3.51649 34.0489 3.73181 34.5609 4.30894 35.2819C4.47775 35.4932 4.99073 35.911 5.19298 36.4041C5.21967 36.4694 5.11926 36.4982 5.14834 36.5453C5.69087 37.391 5.95626 37.2095 6.4051 37.5615C6.85401 37.9111 7.31279 38.6712 7.40147 38.8393C7.62625 39.2782 7.09511 38.6404 7.06849 38.6314C6.72454 38.5511 7.19855 38.9886 7.55087 39.3338C7.39039 39.6089 7.92465 40.0624 7.91944 39.6884C7.91773 39.6478 7.61331 39.4122 7.55087 39.3338C8.07581 39.4093 8.64994 39.8619 9.13504 40.5948C9.36699 40.9344 8.96426 40.8535 9.9783 41.4978C10.4438 41.7812 10.39 41.484 10.8211 41.6896C11.8014 42.1538 12.947 42.9846 13.997 43.3837C14.3751 43.5272 14.0586 43.2645 14.318 43.3567C15.0061 43.5966 15.5842 43.8954 16.3021 44.0572C16.3669 44.0713 16.2493 43.902 16.467 43.9629C18.1201 44.4107 19.5896 44.7433 21.3875 44.8349C21.6911 44.8492 22.0811 44.8509 22.5 44.8372C23.3018 44.8124 24.1971 44.7792 24.8061 44.7857C26.435 44.8015 28.4389 44.9943 29.8304 44.9395C30.738 44.9039 30.5389 44.7641 30.9278 44.666C31.6782 44.4751 33.0066 44.8028 33.1854 44.8548C33.1909 44.8565 32.4099 44.8934 32.8266 44.9646C33.0689 45.1158 33.1766 44.8556 33.1854 44.8548C33.3029 44.8879 34.863 44.914 35.1728 44.8853C35.3411 44.8696 35.247 44.7339 35.3347 44.7282C37.4208 44.5964 39.5106 44.549 41.6265 44.6044C41.6637 44.607 41.6076 44.7635 41.6952 44.7678C42.9201 44.8326 43.7044 44.6378 44.7147 44.5181C45.7248 44.3986 46.5258 44.4323 47.1237 44.7035C47.8859 44.666 48.9793 44.7831 49.6085 44.8552C50.2377 44.9273 50.3255 44.6138 50.3809 44.6073C52.1076 44.4018 53.1058 44.5772 54.8973 44.5995C55.749 44.6105 57.4384 44.5585 58.3606 44.5202C59.0894 44.4893 59.5285 44.5632 60.2 44.5127C60.2909 44.506 60.1991 44.3628 60.2268 44.3572C60.9763 44.1826 60.6161 44.535 60.7708 44.5972C61.3318 44.8236 61.6784 44.9449 62.6382 44.8349C62.8596 44.8099 63.5044 44.2994 63.908 44.2679C64.4326 44.2282 64.2346 44.4117 64.784 44.3656C64.831 44.3618 64.8212 44.2489 65.1603 44.2527C66.7341 44.2687 68.45 44.3295 70.0856 44.3133C70.309 44.3115 70.0226 44.1314 70.3453 44.1257C71.86 44.0993 73.5201 44.1007 74.9957 44.1822C75.3589 44.2028 75.1312 44.3313 75.2101 44.3691C75.6941 44.5978 76.3806 44.2622 76.4938 44.2554C79.1955 44.0875 81.2632 44.3874 84.0169 44.2373C84.1668 44.2287 85.3206 43.8638 85.8353 44.174C85.8706 44.1946 86.3799 44.5124 86.8302 44.2939C86.8582 44.2802 86.5408 44.1166 87.0946 44.1325C87.6484 44.1483 88.5397 44.0371 89.301 44.2167C89.542 44.2732 90.1116 44.5915 90.8305 44.3365C90.8774 44.3188 91.9872 43.742 92.3834 44.1386C92.4476 44.2039 92.3804 44.6243 93.2384 44.408C93.4024 44.366 93.1048 44.2725 93.5367 44.2135C94.1984 44.1226 95.0752 44.2345 95.8886 44.0463C96.0305 44.013 96.6344 43.7266 97.1188 43.9432C97.1947 43.9772 97.0505 44.1179 97.3064 44.1335C98.5228 44.2082 99.7966 44.1134 101.032 44.2105C101.469 44.2446 101.246 44.4723 101.702 44.5332C102.158 44.5941 103.077 44.6527 103.554 44.5486C104.031 44.4445 103.51 44.0816 104.225 44.0525C104.317 44.0488 104.408 44.0453 104.5 44.0422C107.267 43.94 110.035 43.5917 112.625 42.5298C113.019 42.3648 112.646 42.3903 113.212 42.1302C115.354 41.2245 118.451 38.7228 119.945 37.3612C121.18 36.2887 119.959 37.9431 120.846 37.0527C121.274 36.612 121.335 35.8347 121.406 35.7134C122.123 34.5012 122.779 33.7559 123.301 32.5947C123.406 32.3548 123.142 32.5111 123.231 32.3088C123.532 31.6197 123.905 30.915 124.132 30.2291C124.233 29.9215 124.092 29.9373 124.194 29.6589C124.432 28.9918 124.646 28.4016 124.912 27.7452C124.936 27.6844 125 28.1412 125.118 27.6195C125.305 26.7819 125.577 25.7204 125.52 24.7185C125.502 24.4185 125.219 24.3992 125.437 23.7753C125.474 23.6632 125.73 23.7732 125.626 23.3497C125.626 23.3497 125.626 23.3497 125.626 23.3497C125.607 23.2747 125.577 23.1833 125.53 23.0722C125.486 22.9403 125.042 21.7407 125.229 21.1231C125.281 20.9585 125.514 20.5147 125.418 20.1683C125.403 20.1219 125.28 20.3351 125.221 20.0472C125.015 19.0358 124.787 17.9766 124.423 16.9832C124.325 16.7186 124.303 17.1656 124.161 16.7728C123.771 15.6955 123.239 14.3674 122.739 13.3573C122.555 12.9844 122.806 13.1726 122.804 13.1394C122.765 12.5967 122.346 12.5055 122.247 12.3783C121.63 11.5828 121.303 10.8777 120.692 10.1752C120.523 9.98295 120.525 10.2165 120.483 10.1853C120.052 9.86273 120.502 9.99512 120.308 9.72095C119.763 8.9535 119.015 8.20827 118.291 7.59387C118.024 7.369 118.209 7.75273 117.972 7.55169C116.563 6.36844 114.966 5.30788 113.377 4.45108C113.078 4.29022 113.323 4.2673 113.271 4.21094C112.907 3.81597 112.129 3.79513 111.968 3.76259C111.227 3.60648 110.987 3.41086 110.348 3.23791C108.576 2.76589 106.52 2.4377 104.5 2.41131C102.846 2.3869 101.233 2.35179 99.8101 2.32323C95.5321 2.23721 92.2125 2.1061 88.1329 2.10449C87.8736 2.10417 88.1351 2.2543 87.9116 2.25577C85.0259 2.26695 82.1849 2.186 79.2935 2.20049C79.0562 2.20132 79.3982 2.33747 79.0174 2.34299C78.2362 2.35519 77.2467 2.3373 76.4569 2.28757C76.0716 2.26365 76.5884 2.15705 76.2006 2.13552C75.2977 2.08534 74.3299 2.06784 73.4025 2.07963C73.0078 2.08482 73.6032 2.22086 73.0903 2.21711C69.5958 2.19478 66.164 2.1729 62.6327 1.98102C62.3906 1.96772 62.1782 1.72463 61.6635 1.76659C61.6247 1.83282 61.6268 1.91111 61.6099 1.98206C56.523 1.96503 51.4879 1.82885 46.3867 1.76189C46.1716 1.75893 46.5433 1.87124 46.1269 1.86569C43.7169 1.83447 41.3766 1.82859 38.9114 1.70012C38.6668 1.68759 38.7923 1.51791 38.0715 1.53651C37.9443 1.53997 36.8587 1.5512 36.578 1.58386C36.5399 1.58879 36.738 1.66863 36.3881 1.66648C34.3552 1.65265 32.2248 1.60649 30.1954 1.53905C29.8679 1.5281 30.2167 1.45824 29.9834 1.45004C28.3286 1.39431 26.5287 1.42768 24.9474 1.34946C23.889 1.29805 24.2809 1.18737 23.7184 1.07271C23.6389 1.05664 22.9835 1.05117 22.9496 0.987539C22.8626 0.827782 23.18 0.651318 23.0498 0.480767C23.0285 0.452497 22.5001 0.474001 22.5 0.442684C22.5 0.442677 22.5 0.44267 22.5 0.442663C22.5 0.433424 22.5459 0.419615 22.6642 0.39838C22.7005 0.392195 23.3369 0.356319 23.4936 0.323954C23.6027 0.301567 23.4061 0.238561 23.6287 0.208574C23.8514 0.178362 24.096 0.230584 24.4651 0.193446C24.8341 0.155585 24.6719 0.0815371 25.4087 0.0606059ZM52.4416 45.1799C53.0242 45.3305 53.1102 44.7745 52.4801 44.9092C52.4496 44.9164 52.4116 45.1725 52.4416 45.1799ZM0.959701 18.2747C0.637154 18.9748 0.785791 19.5232 1.00068 19.031C1.21864 18.5432 1.05821 18.0651 0.959701 18.2747ZM3.90367 11.1044C3.3302 11.7872 3.66034 12.1463 4.07555 11.3079C4.1003 11.2597 3.93733 11.0651 3.90367 11.1044ZM26.3267 1.05148C26.3187 1.04821 25.8475 1.04326 25.8363 1.04639C25.5854 1.1214 26.5275 1.13276 26.3267 1.05148ZM9.1257 5.39115C8.86744 5.50923 8.28623 6.05936 8.59832 5.89939C8.8453 5.76819 9.44181 5.24113 9.1257 5.39115ZM82.8333 45.7669C82.8425 45.7757 83.1803 45.7836 83.1735 45.7338C83.1506 45.5735 82.6805 45.6189 82.8333 45.7669ZM21.421 0.957953C19.4706 1.06808 18.2338 1.00279 20.3851 0.775321C20.7737 0.742997 19.5568 0.946913 20.054 0.921004C20.9561 0.873217 21.5506 0.67267 22.4829 0.75949C22.6486 0.770319 21.5284 0.945592 21.4175 0.958498C21.4187 0.958315 21.4198 0.958134 21.421 0.957953ZM52.7771 45.8462C52.7888 45.8535 53.2563 45.8605 53.2676 45.8532C53.5208 45.6766 52.5788 45.6629 52.7771 45.8462ZM102.543 46.1357C102.568 46.1526 103.654 46.1684 103.689 46.1528C104.255 45.8423 102.061 45.8095 102.543 46.1357ZM21.2683 46.1705C20.7396 46.2986 20.1138 46.2561 19.7252 46.0119C20.2377 46.0852 20.7486 46.1323 21.2683 46.1705Z" fill="#C4A77D"/>
</svg>
