<svg width="106" height="47" viewBox="0 0 106 47" fill="none" preserveAspectRatio="none" xmlns="http://www.w3.org/2000/svg">
<path d="M25.0861 0.0606021C26.5508 0.0123435 28.4707 -0.00142497 29.9299 0.00782055C30.3872 0.010535 30.1556 0.0617059 30.4713 0.0661573C31.0887 0.0751215 31.6639 0.0424689 32.274 0.0558204C32.4762 0.0606187 32.2245 0.14226 32.4365 0.14577C33.5984 0.165167 34.6975 0.131017 35.8744 0.133723C41.6717 0.150337 47.3703 0.135372 53.2385 0.134143C55.1735 0.132998 57.5256 0.217186 59.5241 0.158994C59.7574 0.151984 59.6183 0.052842 59.6627 0.0442652C60.3589 -0.088156 60.1274 0.116428 60.582 0.140431C62.3862 0.234916 64.3924 0.235576 66.1288 0.1841C66.8674 0.161901 66.1268 -0.0455928 66.8706 0.0685107C66.9222 0.0762749 66.7348 0.191115 66.9374 0.202091C67.3968 0.226862 68.2684 0.201726 68.6244 0.208899C69.3106 0.223466 69.4242 0.221792 70.0732 0.219761C70.9605 0.217828 72.0158 0.271747 72.9677 0.240398C73.1709 0.233259 72.9019 0.112062 73.226 0.089313C73.5503 0.0665494 74.4084 0.0718226 74.6976 0.0995336C74.987 0.127228 74.8638 0.225699 74.915 0.247846C75.3363 0.435677 76.3288 0.168631 76.4565 0.160851C78.6526 0.0437119 80.5536 0.16357 82.5964 0.170855C82.7239 0.171241 82.8517 0.172226 82.9799 0.173751C84.6873 0.189088 86.5211 0.369476 88.1068 0.760214C89.9941 1.22827 91.5213 1.87891 93.2056 2.71663C93.3831 2.80652 93.2509 2.55385 93.4687 2.66462C95.7818 3.84809 97.8701 5.45174 99.5591 7.40376C99.7275 7.59974 99.3914 7.45943 99.5517 7.66083C100.568 8.88436 101.71 11.0414 102.735 11.5263C103.265 12.4615 103.818 13.6482 104.052 14.5845C104.2 15.1869 103.827 14.6929 104.162 15.3685C104.236 15.5221 104.298 15.2641 104.397 15.4991C104.817 16.4938 105.091 17.6397 105.381 18.6711C105.44 18.88 105.559 18.7965 105.594 18.8525C105.892 19.3294 105.701 20.2433 105.697 20.4286C105.7 21.5394 105.755 22.3974 105.769 23.3497C105.769 23.3497 105.769 23.3497 105.769 23.3497C105.772 23.6341 105.771 23.9246 105.759 24.2287C105.746 24.5357 105.942 24.1797 105.935 24.4768C105.893 26.0258 105.641 27.6284 105.191 29.0768C105.09 29.3981 105.015 29.0593 104.959 29.2103C104.707 29.8709 104.947 30.1025 104.675 30.7329C104.617 30.8646 104.515 30.7448 104.493 30.7649C104.144 31.0723 104.33 31.5117 104.299 31.6148C103.91 32.8946 103.233 33.519 102.663 34.6479C102.593 34.7838 102.913 34.5684 102.706 34.9463C101.321 37.465 99.2466 39.7882 96.9411 41.4307C96.5828 41.6859 96.7488 41.3887 96.7169 41.3934C96.2117 41.4691 96.1822 41.9068 96.0726 42.0024C95.2065 42.7442 94.1648 43.0391 93.6837 43.7593C90.2511 45.5105 86.4325 46.5911 82.5964 46.4527C82.5964 46.4527 82.5964 46.4527 82.5964 46.4527C81.6804 46.4197 80.765 46.371 79.8503 46.2992C79.7914 46.295 79.8969 46.1275 79.7795 46.1198C78.3656 46.0256 78.6371 46.286 77.7016 46.6041C77.4659 46.6839 76.749 46.2996 76.6856 46.2714C76.4545 46.1676 76.6942 45.9187 76.6168 45.8986C75.9764 45.7409 76.0807 46.5641 75.2169 46.564C75.1898 46.5626 75.3033 46.4112 75.2308 46.3961C75.0056 46.3488 74.7822 46.4089 74.5618 46.3567C74.0573 46.2359 73.8776 45.8365 73.107 46.0688C73.0095 46.099 73.1585 46.5652 72.3872 46.5427C72.0797 46.5334 70.7186 46.5406 70.3372 46.5103C69.9562 46.4799 70.2178 46.3302 70.1906 46.3237C69.164 46.1252 69.5533 46.0433 69.039 45.7502C68.5247 45.4584 68.6673 46.1545 68.4577 46.232C68.2477 46.3094 67.495 46.1459 67.31 46.0892C67.1252 46.0325 67.3557 45.9376 67.1914 45.9055C66.1014 45.696 66.713 46.2502 66.3538 46.3602C65.5071 46.6204 64.8477 46.1055 64.0725 46.0552C63.8628 46.0416 64.0339 46.1586 63.8472 46.1694C63.1075 46.2107 62.6627 46.0508 61.8211 46.1968C61.6835 46.2207 61.0032 46.5274 60.5628 46.3016C60.5005 46.2691 60.6777 46.1419 60.3624 46.1133C59.8915 46.0703 59.043 46.0423 58.5368 46.0845C58.163 46.1157 58.5914 46.3248 58.121 46.2596C57.9119 46.2305 58.2994 46.1086 57.9066 46.0642C57.5159 46.0198 56.5169 46.0249 56.1368 46.029C55.7574 46.0331 55.965 46.1909 55.9344 46.2015C55.7488 46.2623 55.0206 46.3376 54.9563 46.3373C51.7103 46.3523 48.7171 46.0876 45.5568 46.1715C45.3088 46.1777 45.474 46.34 45.4362 46.3426C44.5871 46.4094 45.2565 45.9794 44.6634 45.8353C44.7492 46.1636 44.399 46.1039 43.801 46.1394C43.5128 46.1567 43.6697 46.2835 43.6434 46.2965C43.216 46.4882 42.9184 46.2394 42.8418 46.1887C42.5587 46.0019 42.2507 46.2219 42.0581 46.0972C41.8656 45.9736 42.3086 45.7906 41.735 45.793C41.5742 45.9093 42 46.2141 41.5645 46.2629C39.9214 46.4465 36.8543 46.2039 35.5332 46.179C34.2147 46.1531 33.7888 46.1735 33.0206 46.1318C31.6328 46.0566 32.1414 46.2756 31.2797 46.3733C30.4154 46.4707 30.8356 45.9381 30.7113 45.8232C30.5894 45.7086 30.4562 45.8266 30.3045 45.7637C30.1533 45.7009 30.4806 45.6228 30.125 45.5995C29.7692 45.5766 28.7964 45.7801 28.6703 45.8987C28.4037 46.1502 28.842 46.415 27.9006 46.3203C27.8464 46.3147 28.0221 46.1764 27.8148 46.1621C26.168 46.0534 24.4572 46.0453 22.8125 45.9521C22.5863 45.9391 22.7886 45.7888 22.6569 45.7796C22.6363 45.7782 22.6162 45.7768 22.5964 45.7756C21.3019 45.6739 21.7693 45.9277 20.9993 46.1605C21.1929 45.7969 20.7939 45.5636 19.7728 45.4386C19.16 45.3564 19.2442 45.528 18.8247 45.5749C18.698 45.5892 18.283 45.4007 18.1906 45.4579C17.8832 45.6426 18.237 46.0122 17.1939 45.6575C17.1488 45.6412 17.3276 45.5471 17.1696 45.5002C16.1532 45.1828 15.9596 45.3944 14.849 45.0405C13.9754 44.7632 12.5544 43.9654 11.6712 43.4394C11.8746 43.1039 11.0022 42.7176 10.5268 42.7307C9.96672 42.3674 9.36427 41.9682 8.87336 41.5487C8.70449 41.4043 8.88827 41.4037 8.8733 41.3771C8.65117 40.9691 8.26988 40.9897 8.15166 40.9051C6.88909 39.9788 6.13104 38.9427 5.03915 37.9235C5.00115 37.8873 4.74385 37.985 4.64227 37.5531C4.63709 37.5251 5.03166 37.8379 4.6074 37.2823C4.18009 36.7246 3.54429 35.5724 2.96445 34.792C2.822 34.6063 2.35202 34.1798 2.27766 33.6794C2.26805 33.6129 2.3628 33.6426 2.35701 33.5431C2.33808 33.2239 2.04196 33.1865 2.08875 32.7825C2.13671 32.3771 1.98878 31.6787 1.53067 30.8238C1.51666 30.7968 1.25658 30.646 1.1647 30.3538C1.01652 29.8888 0.864856 29.2144 0.744764 28.7222C0.686995 28.4867 0.60893 28.665 0.596926 28.6245C0.165743 27.0374 0.10361 25.8495 0.0769046 24.1005C0.0758198 23.9512 0.0371849 23.6719 0.0155099 23.3497C0.0155099 23.3497 0.0155099 23.3497 0.0155099 23.3497C-0.00999257 22.9804 -0.011407 22.5593 0.0689487 22.232C0.244553 21.5576 0.711936 22.2833 0.729631 20.747C0.745457 20.1371 0.200524 19.2239 0.795507 18.1857C1.22504 16.0254 2.12895 14.1798 3.11431 12.2161C3.15841 12.1279 3.17127 11.7711 3.29705 11.5719C3.4833 11.2767 3.65288 11.1586 3.79313 10.9547C4.38509 10.1026 4.91161 9.30701 5.57802 8.55605C5.83236 8.2728 5.80002 8.42213 6.10844 8.09133C6.41887 7.76388 6.55754 7.47552 7.03343 7.08348C7.39506 6.78901 7.86732 6.62486 8.34574 6.25056C8.24079 6.08884 8.56059 5.81552 9.13079 5.32462C9.24066 5.23061 9.07725 5.2704 9.12735 5.2232C9.33133 5.02992 9.57293 4.92396 9.77015 4.74382C9.81831 4.70012 9.78489 4.64605 9.82263 4.60746C10.1416 4.27468 10.8505 4.00389 10.9711 3.96199C11.4348 3.79313 11.5932 3.61385 11.9381 3.46844C12.282 3.32588 11.8141 3.62446 12.2058 3.4415C13.018 3.06132 14.0612 2.5864 14.9179 2.27983C15.258 2.15745 15.0006 2.16972 15.0487 2.15052C15.7515 1.87878 16.5007 1.74441 16.8692 1.49917C17.4665 1.7377 17.2969 1.33898 18.3716 1.2021C18.4565 1.19264 18.5915 1.34044 18.2806 1.42726C17.9709 1.51447 17.4781 1.56735 17.0566 1.71913C16.9545 1.75257 16.4167 2.07854 16.3433 2.11427C15.7556 2.37995 15.5849 2.1572 15.5469 2.15208C15.1234 2.11821 14.4892 2.5577 14.317 2.64584C13.515 3.03732 12.8162 3.33034 12.1814 3.72177C11.7679 3.97986 11.8233 4.17524 11.4958 4.36234C10.4206 5.00024 9.88569 5.02524 9.09388 5.95002C8.92887 6.15274 9.26103 6.16241 8.45644 6.60919C8.40636 6.63577 7.78748 6.95767 7.57804 7.3074C7.55176 7.351 7.59958 7.39958 7.55722 7.44838C7.27379 7.77526 7.03316 7.9408 6.73141 8.30223C6.43033 8.66403 6.09138 9.11435 5.73853 9.51565C5.52566 9.75627 5.16933 10.0041 5.05022 10.1098C4.71054 10.4052 4.57168 10.8836 4.32557 11.0445C4.07593 11.2097 4.22529 10.6552 3.7616 11.2252C3.90833 11.3522 4.04143 11.5108 4.18238 11.6508C3.35208 12.9726 2.61858 14.3373 2.09663 15.8194C2.03295 16.0028 2.20241 15.8535 2.13824 16.0506C1.87179 16.8821 1.5851 17.599 1.42068 18.4924C1.29403 19.1869 1.28855 19.9659 1.24012 20.6908C0.937639 21.1051 0.935876 22.2042 0.91409 22.9921C0.906473 23.212 0.863016 23.2462 0.834309 23.3497C0.834309 23.3497 0.834309 23.3497 0.834309 23.3497C0.826834 23.3769 0.820467 23.4089 0.816313 23.4503C0.748182 24.2012 0.970796 23.8445 1.013 24.0469C1.2131 24.9044 0.692889 25.0139 0.827406 26.0537C0.832358 26.1118 1.21001 26.7329 1.24599 26.8194C1.4617 27.3743 1.16393 26.9312 1.20989 27.2951C1.29989 27.9557 1.33596 28.4321 1.63014 29.1672C1.7163 29.3833 2.04867 29.8494 2.06133 30.3117C2.06293 30.3727 1.9603 30.3736 1.97045 30.42C2.169 31.2561 2.47471 31.1685 2.75506 31.5706C3.03659 31.9722 3.16359 32.7274 3.17904 32.893C3.21447 33.3218 2.97939 32.649 2.95825 32.636C2.67866 32.4854 2.94232 32.9703 3.12488 33.3512C2.87718 33.5469 3.17791 34.0651 3.3173 33.744C3.33163 33.7087 3.15095 33.4333 3.12488 33.3512C3.56496 33.5427 3.90178 34.0706 4.03749 34.8245C4.10536 35.1767 3.7895 35.0021 4.41302 35.8201C4.7019 36.1866 4.77568 35.9148 5.06378 36.2064C5.7202 36.8673 6.34356 37.9098 7.04547 38.5674C7.29871 38.8043 7.1473 38.4798 7.32338 38.6371C7.79147 39.0504 8.13735 39.4896 8.65024 39.8568C8.69672 39.8896 8.67435 39.702 8.82479 39.8244C9.97018 40.7413 10.987 41.5326 12.3401 42.2659C12.9906 42.6258 14.2304 43.1066 14.9439 43.3797C16.1703 43.8766 17.7184 44.4834 18.8598 44.6175C19.6031 44.7052 19.4602 44.5354 19.7862 44.4825C20.4098 44.3802 21.4518 44.7783 21.602 44.8322C21.6083 44.8362 20.9637 44.8348 21.302 44.9265C21.4943 45.0892 21.5952 44.8325 21.602 44.8322C21.6591 44.8556 22.1553 44.8938 22.5964 44.8967C22.8886 44.8993 23.1548 44.8965 23.2582 44.8853C23.4023 44.8696 23.3217 44.7339 23.3968 44.7282C25.1823 44.5964 26.971 44.549 28.782 44.6044C28.8139 44.607 28.7658 44.7635 28.8408 44.7678C29.8892 44.8326 30.5606 44.6378 31.4252 44.5181C32.2898 44.3986 32.9754 44.4323 33.4872 44.7035C34.1395 44.666 35.0754 44.7831 35.614 44.8552C36.1525 44.9273 36.2276 44.6138 36.275 44.6073C37.753 44.4018 38.6073 44.5772 40.1407 44.5995C40.8697 44.6105 42.3157 44.5585 43.105 44.5202C43.7288 44.4893 44.1046 44.5632 44.6794 44.5127C44.7571 44.506 44.6786 44.3628 44.7023 44.3572C45.3438 44.1826 45.0355 44.535 45.1679 44.5972C45.6481 44.8236 45.9448 44.9449 46.7663 44.8349C46.9557 44.8099 47.5077 44.2994 47.8531 44.2679C48.3022 44.2282 48.1327 44.4117 48.6029 44.3656C48.6431 44.3618 48.6347 44.2489 48.9249 44.2527C50.272 44.2687 51.7407 44.3295 53.1406 44.3133C53.3318 44.3115 53.0866 44.1314 53.3629 44.1257C54.6593 44.0993 56.0803 44.1007 57.3433 44.1822C57.6541 44.2028 57.4592 44.3313 57.5267 44.3691C57.941 44.5978 58.5286 44.2622 58.6255 44.2554C60.9379 44.0875 62.7077 44.3873 65.0646 44.2373C65.1929 44.2286 66.1805 43.8638 66.6211 44.174C66.6512 44.1946 67.0871 44.5124 67.4726 44.2939C67.4965 44.2802 67.2249 44.1166 67.6989 44.1325C68.1729 44.1483 68.9358 44.0371 69.5874 44.2167C69.7937 44.2732 70.2812 44.5915 70.8965 44.3365C70.9366 44.3188 71.8866 43.742 72.2256 44.1386C72.2806 44.2039 72.2231 44.6243 72.9575 44.408C73.0978 44.366 72.8431 44.2725 73.2127 44.2135C73.7791 44.1226 74.5296 44.2345 75.2258 44.0463C75.3473 44.013 75.8641 43.7266 76.2787 43.9432C76.3437 43.9771 76.2203 44.1179 76.4393 44.1335C77.4805 44.2082 78.5707 44.1134 79.6279 44.2105C80.0024 44.2446 79.8109 44.4723 80.2013 44.5332C80.5917 44.5941 81.3781 44.6527 81.7866 44.5486C82.1952 44.4445 81.7489 44.0816 82.3609 44.0525C82.4394 44.0488 82.518 44.0453 82.5964 44.0422C82.5964 44.0422 82.5964 44.0422 82.5964 44.0422C84.9673 43.939 87.334 43.7406 89.6026 42.9666C89.9459 42.8467 89.6201 42.8312 90.1183 42.6387C91.9888 41.9706 94.8087 40.0784 96.2493 39.1127C97.4317 38.354 96.2368 39.649 97.0925 38.9957C97.5078 38.6715 97.6042 37.9774 97.6781 37.8813C98.4126 36.9229 99.0832 36.3933 99.6758 35.4779C99.796 35.2887 99.532 35.3705 99.6345 35.2113C99.9814 34.6676 100.408 34.1335 100.702 33.5894C100.833 33.3448 100.696 33.3273 100.826 33.1099C101.134 32.5869 101.417 32.129 101.766 31.6296C101.798 31.5833 101.795 31.986 101.983 31.5689C102.282 30.8972 102.713 30.0648 102.834 29.212C102.869 28.9583 102.597 28.8757 102.924 28.4045C102.99 28.3053 103.299 28.5265 103.148 27.8422C103.129 27.7214 102.936 26.6266 103.255 26.156C103.342 26.0324 103.667 25.7151 103.653 25.4058C103.65 25.3643 103.481 25.5127 103.49 25.2625C103.513 24.6385 103.544 23.9973 103.532 23.3497C103.532 23.3497 103.532 23.3497 103.532 23.3497C103.526 23.0794 103.514 22.8105 103.491 22.5452C103.469 22.3054 103.325 22.6686 103.297 22.3134C103.219 21.332 103.112 20.1132 102.967 19.1603C102.915 18.8077 103.09 19.0218 103.099 18.9938C103.237 18.5327 102.876 18.3605 102.826 18.2328C102.515 17.4268 102.459 16.7612 102.15 16.0273C102.065 15.8253 101.983 16.0228 101.955 15.9866C101.678 15.6135 102.041 15.8307 101.964 15.5539C101.746 14.7778 101.353 13.9647 100.949 13.2607C100.799 13.0022 100.814 13.3769 100.682 13.1459C99.8938 11.7838 98.9513 10.4454 97.9805 9.24026C97.7974 9.01341 98.0126 9.06301 97.9927 8.99853C97.8539 8.54765 97.2192 8.30058 97.101 8.22371C96.5573 7.86435 96.4468 7.61773 96.0014 7.2635C93.8465 5.52002 90.8226 3.84286 88.2942 3.10397C86.2781 2.48916 84.4618 2.20506 82.5964 2.15373C81.3623 2.12482 80.1156 2.10541 78.7727 2.10449C78.5508 2.10417 78.7745 2.2543 78.5833 2.25576C76.1133 2.26695 73.6817 2.186 71.2069 2.20049C71.0038 2.20132 71.2965 2.33747 70.9706 2.34299C70.302 2.35518 69.455 2.3373 68.779 2.28757C68.4493 2.26365 68.8915 2.15705 68.5596 2.13552C67.7868 2.08534 66.9585 2.06784 66.1647 2.07963C65.8268 2.08482 66.3365 2.22086 65.8974 2.2171C62.9065 2.19478 59.9691 2.1729 56.9467 1.98102C56.7395 1.96771 56.5577 1.72462 56.1171 1.76658C56.0839 1.83282 56.0857 1.9111 56.0712 1.98205C51.7172 1.96502 47.4077 1.82884 43.0414 1.76189C42.8573 1.75893 43.1755 1.87123 42.8191 1.86568C40.7563 1.83446 38.7532 1.82859 36.6432 1.70011C36.4338 1.68759 36.5412 1.51791 35.9243 1.53651C35.8155 1.53996 34.8863 1.5512 34.646 1.58385C34.6134 1.58879 34.7829 1.66863 34.4835 1.66647C32.7435 1.65264 30.9201 1.60649 29.1831 1.53905C28.9027 1.5281 29.2013 1.45824 29.0016 1.45004C27.5852 1.3943 26.0446 1.42768 24.6912 1.34946C23.7853 1.29804 24.1207 1.18736 23.6393 1.0727C23.5712 1.05663 23.0102 1.05117 22.9812 0.987535C22.9068 0.827778 23.1785 0.651314 23.067 0.480764C23.0488 0.452492 22.5965 0.473999 22.5964 0.442677C22.5964 0.442672 22.5964 0.442667 22.5964 0.442663C22.5965 0.433423 22.6357 0.419613 22.737 0.398376C22.768 0.392191 23.3127 0.356315 23.4469 0.323951C23.5403 0.301563 23.372 0.238557 23.5625 0.20857C23.7531 0.178358 23.9625 0.23058 24.2784 0.193442C24.5942 0.155581 24.4554 0.0815333 25.0861 0.0606021Z" fill="#C4A77D"/>
</svg>
